ISO-10303-21;
HEADER;
FILE_DESCRIPTION (( 'STEP AP203' ),
    '1' );
FILE_NAME ('5537T518_T-Slotted Framing.STEP',
    '2026-01-18T16:54:33',
    ( 'McMaster Carr Supply' ),
    ( 'McMaster Carr Supply' ),
    'SwSTEP 2.0',
    'SolidWorks 2024',
    '' );
FILE_SCHEMA (( 'CONFIG_CONTROL_DESIGN' ));
ENDSEC;

DATA;
#1 = CARTESIAN_POINT ( 'NONE',  ( 0.3937007874015748254, 0.1181102362204724116, 0.000000000000000000 ) ) ;
#2 = CARTESIAN_POINT ( 'NONE',  ( 0.6299212598425196763, 0.1181102362204724116, 0.000000000000000000 ) ) ;
#3 = ORIENTED_EDGE ( 'NONE', *, *, #485, .F. ) ;
#4 = CIRCLE ( 'NONE', #555, 0.03937007874015747977 ) ;
#5 = CARTESIAN_POINT ( 'NONE',  ( 0.000000000000000000, 0.7874015748031496509, 0.3543307086614173596 ) ) ;
#6 = DIRECTION ( 'NONE',  ( -0.7071067811865474617, 0.7071067811865474617, 0.000000000000000000 ) ) ;
#7 = ORIENTED_EDGE ( 'NONE', *, *, #317, .T. ) ;
#8 = APPROVAL_STATUS ( 'not_yet_approved' ) ;
#9 = EDGE_CURVE ( 'NONE', #323, #394, #219, .T. ) ;
#10 = DIRECTION ( 'NONE',  ( 1.000000000000000000, 0.000000000000000000, 0.000000000000000000 ) ) ;
#11 =( BOUNDED_CURVE ( )  B_SPLINE_CURVE ( 3, ( #376, #363, #240, #454 ),
 .UNSPECIFIED., .F., .F. ) 
 B_SPLINE_CURVE_WITH_KNOTS ( ( 4, 4 ),
 ( 1.570796326794896558, 1.823476581936975371 ),
 .UNSPECIFIED. ) 
 CURVE ( )  GEOMETRIC_REPRESENTATION_ITEM ( )  RATIONAL_B_SPLINE_CURVE ( ( 1.000000000000000000, 0.9946864641781110183, 0.9946864641781110183, 1.000000000000000000 ) ) 
 REPRESENTATION_ITEM ( '' )  );
#12 = ORIENTED_EDGE ( 'NONE', *, *, #238, .F. ) ;
#13 = VECTOR ( 'NONE', #79, 39.37007874015748854 ) ;
#14 = VECTOR ( 'NONE', #573, 39.37007874015748143 ) ;
#15 = PERSON_AND_ORGANIZATION_ROLE ( 'creator' ) ;
#16 = DIRECTION ( 'NONE',  ( 1.000000000000000000, 0.000000000000000000, 0.000000000000000000 ) ) ;
#17 = ORIENTED_EDGE ( 'NONE', *, *, #684, .F. ) ;
#18 = EDGE_CURVE ( 'NONE', #702, #797, #474, .T. ) ;
#19 = VECTOR ( 'NONE', #827, 39.37007874015748143 ) ;
#20 = AXIS2_PLACEMENT_3D ( 'NONE', #409, #828, #150 ) ;
#21 = CARTESIAN_POINT ( 'NONE',  ( 0.3773675410414540909, 0.3773675410414539799, -0.2357967773034923831 ) ) ;
#22 = LINE ( 'NONE', #772, #144 ) ;
#23 = ORIENTED_EDGE ( 'NONE', *, *, #608, .F. ) ;
#24 = APPROVAL_DATE_TIME ( #156, #842 ) ;
#25 = CARTESIAN_POINT ( 'NONE',  ( 0.3937007874015748254, 0.3937007874015747699, 0.2362204724409449064 ) ) ;
#26 = ORIENTED_EDGE ( 'NONE', *, *, #457, .T. ) ;
#27 = CARTESIAN_POINT ( 'NONE',  ( 0.6203684768850674658, 0.1181102362204724116, 0.3543307086614173596 ) ) ;
#28 = EDGE_CURVE ( 'NONE', #147, #316, #137, .T. ) ;
#29 = CARTESIAN_POINT ( 'NONE',  ( 0.3692393565527702926, 0.3692393565527694599, -0.2349505267094593175 ) ) ;
#30 = ORIENTED_EDGE ( 'NONE', *, *, #507, .F. ) ;
#31 = DIRECTION ( 'NONE',  ( -1.000000000000000000, 0.000000000000000000, 0.000000000000000000 ) ) ;
#32 = PRODUCT_DEFINITION_FORMATION_WITH_SPECIFIED_SOURCE ( 'ANY', '', #418, .NOT_KNOWN. ) ;
#33 = EDGE_CURVE ( 'NONE', #162, #522, #727, .T. ) ;
#34 = CARTESIAN_POINT ( 'NONE',  ( 0.4527559055118111631, 0.4527559055118108855, -0.2287194889492569216 ) ) ;
#35 = DIRECTION ( 'NONE',  ( -0.000000000000000000, -0.000000000000000000, -1.000000000000000000 ) ) ;
#36 = ORIENTED_EDGE ( 'NONE', *, *, #485, .T. ) ;
#37 = FACE_OUTER_BOUND ( 'NONE', #43, .T. ) ;
#38 = CALENDAR_DATE ( 2026, 18, 1 ) ;
#39 = DIRECTION ( 'NONE',  ( 0.000000000000000000, 0.000000000000000000, -1.000000000000000000 ) ) ;
#40 = EDGE_CURVE ( 'NONE', #593, #843, #461, .T. ) ;
#41 = PLANE ( 'NONE',  #854 ) ;
#42 = ORIENTED_EDGE ( 'NONE', *, *, #600, .T. ) ;
#43 = EDGE_LOOP ( 'NONE', ( #449, #823, #278, #513, #644 ) ) ;
#44 = CC_DESIGN_PERSON_AND_ORGANIZATION_ASSIGNMENT ( #764, #91, ( #32 ) ) ;
#45 = DIRECTION ( 'NONE',  ( -3.399456410672132643E-17, -1.000000000000000000, 0.000000000000000000 ) ) ;
#46 = CIRCLE ( 'NONE', #395, 0.1082677165354331006 ) ;
#47 = DIRECTION ( 'NONE',  ( 1.000000000000000000, -2.602085213965208275E-15, 0.000000000000000000 ) ) ;
#48 = CARTESIAN_POINT ( 'NONE',  ( 0.7480314960629922405, 0.1574803149606297803, 0.000000000000000000 ) ) ;
#49 = ORIENTED_EDGE ( 'NONE', *, *, #616, .T. ) ;
#50 = CARTESIAN_POINT ( 'NONE',  ( 0.1181102362204725087, 0.3937007874015748254, -0.1082677165354330728 ) ) ;
#51 = ADVANCED_FACE ( 'NONE', ( #128 ), #465, .F. ) ;
#52 = ORGANIZATION ( 'UNSPECIFIED', 'UNSPECIFIED', '' ) ;
#53 = VECTOR ( 'NONE', #738, 39.37007874015748143 ) ;
#54 = CARTESIAN_POINT ( 'NONE',  ( 0.6299212598425196763, 0.1574803149606297803, 0.000000000000000000 ) ) ;
#55 = EDGE_LOOP ( 'NONE', ( #358, #745, #224, #683 ) ) ;
#56 = EDGE_CURVE ( 'NONE', #481, #705, #398, .T. ) ;
#57 = APPROVAL_DATE_TIME ( #324, #293 ) ;
#58 = DIRECTION ( 'NONE',  ( -1.000000000000000000, 0.000000000000000000, 0.000000000000000000 ) ) ;
#59 = DIRECTION ( 'NONE',  ( 1.000000000000000000, 0.000000000000000000, 0.000000000000000000 ) ) ;
#60 = ORIENTED_EDGE ( 'NONE', *, *, #801, .F. ) ;
#61 = DIRECTION ( 'NONE',  ( -0.000000000000000000, -0.000000000000000000, -1.000000000000000000 ) ) ;
#62 = DIRECTION ( 'NONE',  ( 0.000000000000000000, -1.000000000000000000, 0.000000000000000000 ) ) ;
#63 = VERTEX_POINT ( 'NONE', #524 ) ;
#64 = AXIS2_PLACEMENT_3D ( 'NONE', #460, #58, #584 ) ;
#65 = DIRECTION ( 'NONE',  ( 0.000000000000000000, 0.000000000000000000, 1.000000000000000000 ) ) ;
#66 = ADVANCED_FACE ( 'NONE', ( #196, #674 ), #456, .F. ) ;
#67 = DIRECTION ( 'NONE',  ( -0.000000000000000000, 1.000000000000000000, 0.000000000000000000 ) ) ;
#68 = MANIFOLD_SOLID_BREP ( 'Imported1', #427 ) ;
#69 = ORIENTED_EDGE ( 'NONE', *, *, #725, .F. ) ;
#70 = LINE ( 'NONE', #338, #526 ) ;
#71 = CARTESIAN_POINT ( 'NONE',  ( 0.6299212598425196763, 0.7874015748031496509, 0.000000000000000000 ) ) ;
#72 = EDGE_CURVE ( 'NONE', #808, #702, #183, .T. ) ;
#73 = ORIENTED_EDGE ( 'NONE', *, *, #18, .T. ) ;
#74 = DIRECTION ( 'NONE',  ( -3.399456410672132643E-17, -1.000000000000000000, 0.000000000000000000 ) ) ;
#75 = DIRECTION ( 'NONE',  ( 1.000000000000000000, -0.000000000000000000, -0.000000000000000000 ) ) ;
#76 = ORIENTED_EDGE ( 'NONE', *, *, #121, .T. ) ;
#77 = AXIS2_PLACEMENT_3D ( 'NONE', #142, #280, #354 ) ;
#78 = PLANE ( 'NONE',  #627 ) ;
#79 = DIRECTION ( 'NONE',  ( -0.7071067811865475727, 0.7071067811865473507, 0.000000000000000000 ) ) ;
#80 =( BOUNDED_CURVE ( )  B_SPLINE_CURVE ( 3, ( #54, #256, #521, #796 ),
 .UNSPECIFIED., .F., .F. ) 
 B_SPLINE_CURVE_WITH_KNOTS ( ( 4, 4 ),
 ( 0.000000000000000000, 1.570796326794897002 ),
 .UNSPECIFIED. ) 
 CURVE ( )  GEOMETRIC_REPRESENTATION_ITEM ( )  RATIONAL_B_SPLINE_CURVE ( ( 1.000000000000000000, 0.8047378541243649375, 0.8047378541243649375, 1.000000000000000000 ) ) 
 REPRESENTATION_ITEM ( '' )  );
#81 = CIRCLE ( 'NONE', #699, 0.1082677165354330728 ) ;
#82 = EDGE_LOOP ( 'NONE', ( #230, #862, #340, #214 ) ) ;
#83 = EDGE_CURVE ( 'NONE', #281, #286, #788, .T. ) ;
#84 = APPLICATION_PROTOCOL_DEFINITION ( 'international standard', 'config_control_design', 1994, #560 ) ;
#85 = CARTESIAN_POINT ( 'NONE',  ( 0.1516686184488575673, 0.5868100946566822129, 0.1808870337097339687 ) ) ;
#86 = ORIENTED_EDGE ( 'NONE', *, *, #317, .F. ) ;
#87 = APPLICATION_CONTEXT ( 'configuration controlled 3d designs of mechanical parts and assemblies' ) ;
#88 = CALENDAR_DATE ( 2026, 18, 1 ) ;
#89 = CYLINDRICAL_SURFACE ( 'NONE', #77, 0.03937007874015747977 ) ;
#90 = ORIENTED_EDGE ( 'NONE', *, *, #695, .F. ) ;
#91 = PERSON_AND_ORGANIZATION_ROLE ( 'creator' ) ;
#92 = CYLINDRICAL_SURFACE ( 'NONE', #443, 0.2362204724409449064 ) ;
#93 = VERTEX_POINT ( 'NONE', #666 ) ;
#94 = AXIS2_PLACEMENT_3D ( 'NONE', #1, #127, #405 ) ;
#95 = DESIGN_CONTEXT ( 'detailed design', #560, 'design' ) ;
#96 = VECTOR ( 'NONE', #331, 39.37007874015748143 ) ;
#97 = AXIS2_PLACEMENT_3D ( 'NONE', #253, #800, #871 ) ;
#98 = ORIENTED_EDGE ( 'NONE', *, *, #291, .T. ) ;
#99 = APPROVAL ( #8, 'UNSPECIFIED' ) ;
#100 = PERSON_AND_ORGANIZATION_ROLE ( 'design_owner' ) ;
#101 = CARTESIAN_POINT ( 'NONE',  ( 0.3543307086614173596, 0.3937007874015748254, 0.000000000000000000 ) ) ;
#102 = ORIENTED_EDGE ( 'NONE', *, *, #790, .F. ) ;
#103 = CYLINDRICAL_SURFACE ( 'NONE', #744, 0.2362204724409449064 ) ;
#104 = EDGE_CURVE ( 'NONE', #680, #297, #594, .T. ) ;
#105 = CARTESIAN_POINT ( 'NONE',  ( 0.1181102362204725781, 0.6203684768850671327, -0.06649714388181110492 ) ) ;
#106 = CARTESIAN_POINT ( 'NONE',  ( 0.3937007874015748254, 0.1181102362204724532, 0.000000000000000000 ) ) ;
#107 = CARTESIAN_POINT ( 'NONE',  ( 0.3937007874015748254, 0.3543307086614173596, 0.000000000000000000 ) ) ;
#108 = VECTOR ( 'NONE', #118, 39.37007874015748143 ) ;
#109 = EDGE_CURVE ( 'NONE', #394, #323, #250, .T. ) ;
#110 = LOCAL_TIME ( 10, 54, 33.00000000000000000, #794 ) ;
#111 = CARTESIAN_POINT ( 'NONE',  ( -0.07874015748031483464, 0.8661417322834645827, -0.2362204724409450174 ) ) ;
#112 = CARTESIAN_POINT ( 'NONE',  ( 0.7874015748031496509, 0.1018026156546026628, -0.3543307086614173596 ) ) ;
#113 = ORIENTED_EDGE ( 'NONE', *, *, #684, .T. ) ;
#114 = FACE_BOUND ( 'NONE', #586, .T. ) ;
#115 = DIRECTION ( 'NONE',  ( 0.000000000000000000, 0.000000000000000000, 1.000000000000000000 ) ) ;
#116 = CARTESIAN_POINT ( 'NONE',  ( 0.000000000000000000, 0.3937007874015748254, 0.1082677165354330728 ) ) ;
#117 = ORIENTED_EDGE ( 'NONE', *, *, #444, .F. ) ;
#118 = DIRECTION ( 'NONE',  ( -1.000000000000000000, 0.000000000000000000, 0.000000000000000000 ) ) ;
#119 = CARTESIAN_POINT ( 'NONE',  ( 0.4527559055118111631, 0.4527559055118108855, -0.2287194889492569216 ) ) ;
#120 = DIRECTION ( 'NONE',  ( -0.000000000000000000, -0.000000000000000000, -1.000000000000000000 ) ) ;
#121 = EDGE_CURVE ( 'NONE', #797, #565, #269, .T. ) ;
#122 = EDGE_LOOP ( 'NONE', ( #73, #138, #375, #273 ) ) ;
#123 = CC_DESIGN_APPROVAL ( #99, ( #32 ) ) ;
#124 = CARTESIAN_POINT ( 'NONE',  ( 0.1181102362204724948, 0.1574803149606299191, -0.3543307086614173596 ) ) ;
#125 = CARTESIAN_POINT ( 'NONE',  ( 0.1296414653076162493, 0.7758703457160059935, 0.3543307086614173596 ) ) ;
#126 = ORIENTED_EDGE ( 'NONE', *, *, #672, .F. ) ;
#127 = DIRECTION ( 'NONE',  ( -3.399456410672132643E-17, -1.000000000000000000, 0.000000000000000000 ) ) ;
#128 = FACE_OUTER_BOUND ( 'NONE', #386, .T. ) ;
#129 = EDGE_LOOP ( 'NONE', ( #609, #576, #732, #775, #69, #492, #90 ) ) ;
#130 = EDGE_CURVE ( 'NONE', #808, #655, #804, .T. ) ;
#131 = CARTESIAN_POINT ( 'NONE',  ( 0.000000000000000000, 0.000000000000000000, 0.3543307086614173596 ) ) ;
#132 = CARTESIAN_POINT ( 'NONE',  ( 0.000000000000000000, 0.000000000000000000, -0.3543307086614173596 ) ) ;
#133 = ORIENTED_EDGE ( 'NONE', *, *, #130, .F. ) ;
#134 = EDGE_CURVE ( 'NONE', #619, #808, #192, .T. ) ;
#135 = PERSON ( 'UNSPECIFIED', 'UNSPECIFIED', 'UNSPECIFIED', ('UNSPECIFIED'), ('UNSPECIFIED'), ('UNSPECIFIED') ) ;
#136 = CARTESIAN_POINT ( 'NONE',  ( 0.000000000000000000, 0.000000000000000000, -0.3543307086614173596 ) ) ;
#137 = LINE ( 'NONE', #132, #96 ) ;
#138 = ORIENTED_EDGE ( 'NONE', *, *, #299, .F. ) ;
#139 = AXIS2_PLACEMENT_3D ( 'NONE', #101, #568, #841 ) ;
#140 = ORIENTED_EDGE ( 'NONE', *, *, #28, .T. ) ;
#141 = DIRECTION ( 'NONE',  ( 0.000000000000000000, 0.000000000000000000, 1.000000000000000000 ) ) ;
#142 = CARTESIAN_POINT ( 'NONE',  ( 0.1574803149606299191, 0.1574803149606299191, -0.3543307086614173596 ) ) ;
#143 = ORIENTED_EDGE ( 'NONE', *, *, #507, .T. ) ;
#144 = VECTOR ( 'NONE', #504, 39.37007874015748143 ) ;
#145 = DIRECTION ( 'NONE',  ( -0.7071067811865475727, 0.7071067811865473507, 0.000000000000000000 ) ) ;
#146 = CARTESIAN_POINT ( 'NONE',  ( 0.1018026156546025518, 0.7480314960629921295, -0.3543307086614173596 ) ) ;
#147 = VERTEX_POINT ( 'NONE', #326 ) ;
#148 = ADVANCED_FACE ( 'NONE', ( #393 ), #468, .F. ) ;
#149 = APPROVAL_ROLE ( '' ) ;
#150 = DIRECTION ( 'NONE',  ( -0.7071067811865475727, 0.7071067811865473507, 0.000000000000000000 ) ) ;
#151 = APPROVAL_PERSON_ORGANIZATION ( #495, #99, #548 ) ;
#152 = ORIENTED_EDGE ( 'NONE', *, *, #56, .F. ) ;
#153 = CALENDAR_DATE ( 2026, 18, 1 ) ;
#154 = CARTESIAN_POINT ( 'NONE',  ( 0.000000000000000000, 0.000000000000000000, -0.3543307086614173596 ) ) ;
#155 = ORIENTED_EDGE ( 'NONE', *, *, #425, .F. ) ;
#156 = DATE_AND_TIME ( #88, #659 ) ;
#157 = FACE_OUTER_BOUND ( 'NONE', #209, .T. ) ;
#158 = ORIENTED_EDGE ( 'NONE', *, *, #493, .F. ) ;
#159 = PERSON_AND_ORGANIZATION ( #135, #52 ) ;
#160 = EDGE_CURVE ( 'NONE', #680, #63, #80, .T. ) ;
#161 = CARTESIAN_POINT ( 'NONE',  ( 0.000000000000000000, 0.000000000000000000, -0.3543307086614173596 ) ) ;
#162 = VERTEX_POINT ( 'NONE', #743 ) ;
#163 = APPROVAL_PERSON_ORGANIZATION ( #830, #842, #149 ) ;
#164 = CARTESIAN_POINT ( 'NONE',  ( 0.7874015748031496509, 0.1018026156546026628, -0.3543307086614173596 ) ) ;
#165 = ORIENTED_EDGE ( 'NONE', *, *, #28, .F. ) ;
#166 = CARTESIAN_POINT ( 'NONE',  ( 0.1018026156546025518, 0.7874015748031496509, -0.3543307086614173596 ) ) ;
#167 =( BOUNDED_CURVE ( )  B_SPLINE_CURVE ( 3, ( #232, #496, #636, #500, #434, #708, #34 ),
 .UNSPECIFIED., .F., .F. ) 
 B_SPLINE_CURVE_WITH_KNOTS ( ( 4, 3, 4 ),
 ( 1.318116071652817078, 3.141592653589793116, 4.965069235526769376 ),
 .UNSPECIFIED. ) 
 CURVE ( )  GEOMETRIC_REPRESENTATION_ITEM ( )  RATIONAL_B_SPLINE_CURVE ( ( 1.000000000000000000, 0.7415816237971961655, 0.7415816237971961655, 1.000000000000000000, 0.7415816237971961655, 0.7415816237971961655, 1.000000000000000000 ) ) 
 REPRESENTATION_ITEM ( '' )  );
#168 = CARTESIAN_POINT ( 'NONE',  ( 0.3937007874015747699, 0.3937007874015747699, -0.2362204724409449064 ) ) ;
#169 = ORIENTED_EDGE ( 'NONE', *, *, #768, .T. ) ;
#170 = EDGE_CURVE ( 'NONE', #655, #316, #597, .T. ) ;
#171 = CARTESIAN_POINT ( 'NONE',  ( 0.7874015748031497619, 0.3937007874015746589, 0.000000000000000000 ) ) ;
#172 = CARTESIAN_POINT ( 'NONE',  ( 0.5868100946566829901, 0.1516686184488568179, -0.1808870337097329972 ) ) ;
#173 = CARTESIAN_POINT ( 'NONE',  ( 0.000000000000000000, 0.1181102362204724532, 0.3543307086614173596 ) ) ;
#174 = ORIENTED_EDGE ( 'NONE', *, *, #852, .T. ) ;
#175 = DIRECTION ( 'NONE',  ( 1.000000000000000000, 0.000000000000000000, 0.000000000000000000 ) ) ;
#176 = CC_DESIGN_PERSON_AND_ORGANIZATION_ASSIGNMENT ( #159, #100, ( #418 ) ) ;
#177 = AXIS2_PLACEMENT_3D ( 'NONE', #357, #878, #6 ) ;
#178 = CARTESIAN_POINT ( 'NONE',  ( 0.4878092547440375237, 0.2506694583615023952, -0.2472952079748140242 ) ) ;
#179 = DIRECTION ( 'NONE',  ( 1.000000000000000000, -0.000000000000000000, -0.000000000000000000 ) ) ;
#180 = ORIENTED_EDGE ( 'NONE', *, *, #863, .T. ) ;
#181 = DIRECTION ( 'NONE',  ( -1.000000000000000000, 2.039673846403280818E-16, 0.000000000000000000 ) ) ;
#182 = DIRECTION ( 'NONE',  ( -0.000000000000000000, -0.000000000000000000, -1.000000000000000000 ) ) ;
#183 = LINE ( 'NONE', #731, #589 ) ;
#184 = CYLINDRICAL_SURFACE ( 'NONE', #346, 0.1082677165354331006 ) ;
#185 = SHAPE_DEFINITION_REPRESENTATION ( #210, #491 ) ;
#186 = CARTESIAN_POINT ( 'NONE',  ( 0.000000000000000000, 0.1181102362204724532, -0.3543307086614173596 ) ) ;
#187 = CARTESIAN_POINT ( 'NONE',  ( 0.6203684768850674658, 0.1181102362204724254, -0.3543307086614173596 ) ) ;
#188 = EDGE_LOOP ( 'NONE', ( #7, #390, #174, #559, #847, #140, #550 ) ) ;
#189 = AXIS2_PLACEMENT_3D ( 'NONE', #617, #681, #613 ) ;
#190 = SECURITY_CLASSIFICATION ( '', '', #231 ) ;
#191 = CARTESIAN_POINT ( 'NONE',  ( 0.7480314960629921295, 0.1018026156546026628, -0.3543307086614173596 ) ) ;
#192 = LINE ( 'NONE', #533, #428 ) ;
#193 = ORIENTED_EDGE ( 'NONE', *, *, #9, .F. ) ;
#194 = ADVANCED_FACE ( 'NONE', ( #483 ), #92, .F. ) ;
#195 = DIRECTION ( 'NONE',  ( 0.000000000000000000, 0.000000000000000000, -1.000000000000000000 ) ) ;
#196 = FACE_BOUND ( 'NONE', #328, .T. ) ;
#197 = EDGE_LOOP ( 'NONE', ( #649, #714, #637, #448 ) ) ;
#198 = EDGE_CURVE ( 'NONE', #709, #525, #4, .T. ) ;
#199 = DIRECTION ( 'NONE',  ( 1.000000000000000000, -0.000000000000000000, -0.000000000000000000 ) ) ;
#200 = DIRECTION ( 'NONE',  ( 1.000000000000000000, 0.000000000000000000, 0.000000000000000000 ) ) ;
#201 = ORIENTED_EDGE ( 'NONE', *, *, #502, .T. ) ;
#202 = AXIS2_PLACEMENT_3D ( 'NONE', #869, #74, #276 ) ;
#203 = CYLINDRICAL_SURFACE ( 'NONE', #812, 0.2362204724409449064 ) ;
#204 = DIRECTION ( 'NONE',  ( 0.000000000000000000, 0.000000000000000000, 1.000000000000000000 ) ) ;
#205 = ORIENTED_EDGE ( 'NONE', *, *, #352, .T. ) ;
#206 = DIRECTION ( 'NONE',  ( -1.000000000000000000, 0.000000000000000000, 0.000000000000000000 ) ) ;
#207 = ADVANCED_FACE ( 'NONE', ( #350, #692 ), #682, .T. ) ;
#208 = CYLINDRICAL_SURFACE ( 'NONE', #333, 0.2362204724409449064 ) ;
#209 = EDGE_LOOP ( 'NONE', ( #380, #872, #837, #407, #302 ) ) ;
#210 = PRODUCT_DEFINITION_SHAPE ( 'NONE', 'NONE',  #476 ) ;
#211 = AXIS2_PLACEMENT_3D ( 'NONE', #653, #377, #47 ) ;
#212 = DIRECTION ( 'NONE',  ( 0.7071067811865474617, -0.7071067811865474617, 0.000000000000000000 ) ) ;
#213 = DIRECTION ( 'NONE',  ( -3.399456410672132643E-17, -1.000000000000000000, 0.000000000000000000 ) ) ;
#214 = ORIENTED_EDGE ( 'NONE', *, *, #83, .F. ) ;
#215 = APPLICATION_PROTOCOL_DEFINITION ( 'international standard', 'config_control_design', 1994, #87 ) ;
#216 = DIRECTION ( 'NONE',  ( -0.000000000000000000, -0.000000000000000000, 1.000000000000000000 ) ) ;
#217 = VECTOR ( 'NONE', #583, 39.37007874015748143 ) ;
#218 = ORIENTED_EDGE ( 'NONE', *, *, #378, .F. ) ;
#219 = CIRCLE ( 'NONE', #857, 0.1082677165354331006 ) ;
#220 = AXIS2_PLACEMENT_3D ( 'NONE', #865, #679, #200 ) ;
#221 = EDGE_CURVE ( 'NONE', #623, #478, #867, .T. ) ;
#222 = COORDINATED_UNIVERSAL_TIME_OFFSET ( 6, 0, .BEHIND. ) ;
#223 = LINE ( 'NONE', #284, #13 ) ;
#224 = ORIENTED_EDGE ( 'NONE', *, *, #329, .F. ) ;
#225 = EDGE_CURVE ( 'NONE', #705, #351, #677, .T. ) ;
#226 = AXIS2_PLACEMENT_3D ( 'NONE', #641, #294, #360 ) ;
#227 = PRODUCT_RELATED_PRODUCT_CATEGORY ( 'detail', '', ( #418 ) ) ;
#228 = CARTESIAN_POINT ( 'NONE',  ( 0.5019685039370078705, 0.3543307086614173596, 0.000000000000000000 ) ) ;
#229 = CARTESIAN_POINT ( 'NONE',  ( 0.1181102362204725087, 0.3937007874015748254, 0.000000000000000000 ) ) ;
#230 = ORIENTED_EDGE ( 'NONE', *, *, #274, .F. ) ;
#231 = SECURITY_CLASSIFICATION_LEVEL ( 'unclassified' ) ;
#232 = CARTESIAN_POINT ( 'NONE',  ( 0.4527559055118113296, 0.4527559055118108300, 0.2287194889492569216 ) ) ;
#233 = ORIENTED_EDGE ( 'NONE', *, *, #437, .F. ) ;
#234 = VECTOR ( 'NONE', #366, 39.37007874015748143 ) ;
#235 = DIRECTION ( 'NONE',  ( -0.000000000000000000, -1.000000000000000000, -0.000000000000000000 ) ) ;
#236 = DIRECTION ( 'NONE',  ( 0.000000000000000000, 0.000000000000000000, 1.000000000000000000 ) ) ;
#237 = CARTESIAN_POINT ( 'NONE',  ( 0.6203684768850674658, 0.1181102362204723838, -0.06649714388181010571 ) ) ;
#238 = EDGE_CURVE ( 'NONE', #484, #680, #287, .T. ) ;
#239 = ORIENTED_EDGE ( 'NONE', *, *, #863, .F. ) ;
#240 = CARTESIAN_POINT ( 'NONE',  ( 0.4334401791196590970, 0.4334401791196589859, -0.2337067880583705015 ) ) ;
#241 = FACE_OUTER_BOUND ( 'NONE', #188, .T. ) ;
#242 = CARTESIAN_POINT ( 'NONE',  ( 0.3855286687564506432, 0.3855286687564505876, 0.2362204724409449064 ) ) ;
#243 = ORIENTED_EDGE ( 'NONE', *, *, #221, .T. ) ;
#244 = LINE ( 'NONE', #298, #319 ) ;
#245 = CARTESIAN_POINT ( 'NONE',  ( 0.3692393565527702926, 0.3692393565527694599, -0.2349505267094593175 ) ) ;
#246 = CARTESIAN_POINT ( 'NONE',  ( 0.1181102362204725503, 0.6203684768850671327, 0.3543307086614173596 ) ) ;
#247 = EDGE_LOOP ( 'NONE', ( #98, #361 ) ) ;
#248 = CARTESIAN_POINT ( 'NONE',  ( 0.1181102362204724532, 0.1181102362204724532, -0.3543307086614173596 ) ) ;
#249 = AXIS2_PLACEMENT_3D ( 'NONE', #844, #45, #707 ) ;
#250 = CIRCLE ( 'NONE', #746, 0.1082677165354331006 ) ;
#251 = CARTESIAN_POINT ( 'NONE',  ( 0.7480314960629922405, 0.1574803149606297803, 0.000000000000000000 ) ) ;
#252 = ORIENTED_EDGE ( 'NONE', *, *, #437, .T. ) ;
#253 = CARTESIAN_POINT ( 'NONE',  ( 0.1181102362204724532, 0.1181102362204724532, -0.3543307086614173596 ) ) ;
#254 = CARTESIAN_POINT ( 'NONE',  ( 0.6203684768850674658, 0.1181102362204723838, -0.06649714388181010571 ) ) ;
#255 = CC_DESIGN_PERSON_AND_ORGANIZATION_ASSIGNMENT ( #759, #15, ( #476 ) ) ;
#256 = CARTESIAN_POINT ( 'NONE',  ( 0.6299212598425196763, 0.1574803149606298358, -0.1383747490457256368 ) ) ;
#257 = EDGE_LOOP ( 'NONE', ( #676, #556, #817, #689, #307 ) ) ;
#258 = ORIENTED_EDGE ( 'NONE', *, *, #225, .T. ) ;
#259 = DIRECTION ( 'NONE',  ( 1.000000000000000000, 0.000000000000000000, 0.000000000000000000 ) ) ;
#260 = ADVANCED_FACE ( 'NONE', ( #537 ), #208, .F. ) ;
#261 = DIRECTION ( 'NONE',  ( 1.000000000000000000, 3.469446951953614189E-15, 0.000000000000000000 ) ) ;
#262 = ORIENTED_EDGE ( 'NONE', *, *, #600, .F. ) ;
#263 = AXIS2_PLACEMENT_3D ( 'NONE', #248, #181, #657 ) ;
#264 = DIRECTION ( 'NONE',  ( -1.000000000000000000, 0.000000000000000000, 0.000000000000000000 ) ) ;
#265 = DIRECTION ( 'NONE',  ( 1.000000000000000000, -0.000000000000000000, -0.000000000000000000 ) ) ;
#266 = ADVANCED_FACE ( 'NONE', ( #157 ), #542, .F. ) ;
#267 = ORIENTED_EDGE ( 'NONE', *, *, #40, .T. ) ;
#268 = CARTESIAN_POINT ( 'NONE',  ( 0.1181102362204724532, 0.1574803149606299191, -0.3543307086614173596 ) ) ;
#269 = LINE ( 'NONE', #125, #388 ) ;
#270 = ORIENTED_EDGE ( 'NONE', *, *, #72, .F. ) ;
#271 = DIRECTION ( 'NONE',  ( 0.000000000000000000, 0.000000000000000000, 1.000000000000000000 ) ) ;
#272 = DIRECTION ( 'NONE',  ( -1.000000000000000000, 0.000000000000000000, 0.000000000000000000 ) ) ;
#273 = ORIENTED_EDGE ( 'NONE', *, *, #616, .F. ) ;
#274 = EDGE_CURVE ( 'NONE', #394, #281, #811, .T. ) ;
#275 = VECTOR ( 'NONE', #596, 39.37007874015748143 ) ;
#276 = DIRECTION ( 'NONE',  ( 1.000000000000000000, 0.000000000000000000, 0.000000000000000000 ) ) ;
#277 = CARTESIAN_POINT ( 'NONE',  ( 0.5019685039370078705, 0.1181102362204724532, 0.000000000000000000 ) ) ;
#278 = ORIENTED_EDGE ( 'NONE', *, *, #736, .T. ) ;
#279 = LINE ( 'NONE', #392, #370 ) ;
#280 = DIRECTION ( 'NONE',  ( 0.000000000000000000, 0.000000000000000000, -1.000000000000000000 ) ) ;
#281 = VERTEX_POINT ( 'NONE', #686 ) ;
#282 =( NAMED_UNIT ( * ) SI_UNIT ( $, .STERADIAN. ) SOLID_ANGLE_UNIT ( ) );
#283 = VECTOR ( 'NONE', #816, 39.37007874015748143 ) ;
#284 = CARTESIAN_POINT ( 'NONE',  ( 0.6203684768850674658, 0.1181102362204724116, 0.3543307086614173596 ) ) ;
#285 = EDGE_CURVE ( 'NONE', #522, #662, #223, .T. ) ;
#286 = VERTEX_POINT ( 'NONE', #412 ) ;
#287 =( BOUNDED_CURVE ( )  B_SPLINE_CURVE ( 3, ( #754, #760, #490, #549 ),
 .UNSPECIFIED., .F., .F. ) 
 B_SPLINE_CURVE_WITH_KNOTS ( ( 4, 4 ),
 ( 4.712388980384689674, 6.283185307179586232 ),
 .UNSPECIFIED. ) 
 CURVE ( )  GEOMETRIC_REPRESENTATION_ITEM ( )  RATIONAL_B_SPLINE_CURVE ( ( 1.000000000000000000, 0.8047378541243649375, 0.8047378541243649375, 1.000000000000000000 ) ) 
 REPRESENTATION_ITEM ( '' )  );
#288 = CARTESIAN_POINT ( 'NONE',  ( 0.3937007874015748254, 0.7874015748031496509, 0.000000000000000000 ) ) ;
#289 = AXIS2_PLACEMENT_3D ( 'NONE', #610, #536, #141 ) ;
#290 = ORIENTED_EDGE ( 'NONE', *, *, #109, .F. ) ;
#291 = EDGE_CURVE ( 'NONE', #286, #281, #46, .T. ) ;
#292 = AXIS2_PLACEMENT_3D ( 'NONE', #435, #216, #272 ) ;
#293 = APPROVAL ( #652, 'UNSPECIFIED' ) ;
#294 = DIRECTION ( 'NONE',  ( 1.000000000000000000, -0.000000000000000000, -0.000000000000000000 ) ) ;
#295 = ORIENTED_EDGE ( 'NONE', *, *, #130, .T. ) ;
#296 = COORDINATED_UNIVERSAL_TIME_OFFSET ( 6, 0, .BEHIND. ) ;
#297 = VERTEX_POINT ( 'NONE', #2 ) ;
#298 = CARTESIAN_POINT ( 'NONE',  ( 0.1574803149606299191, 0.1181102362204724532, -0.3543307086614173596 ) ) ;
#299 = EDGE_CURVE ( 'NONE', #709, #797, #487, .T. ) ;
#300 = LENGTH_MEASURE_WITH_UNIT ( LENGTH_MEASURE( 0.02539999999999999897 ), #628 );
#301 = PLANE ( 'NONE',  #463 ) ;
#302 = ORIENTED_EDGE ( 'NONE', *, *, #352, .F. ) ;
#303 = CC_DESIGN_APPROVAL ( #842, ( #476 ) ) ;
#304 = CARTESIAN_POINT ( 'NONE',  ( 0.7758703457160058825, 0.1296414653076163048, -0.3543307086614173596 ) ) ;
#305 = DIRECTION ( 'NONE',  ( -1.000000000000000000, 0.000000000000000000, 0.000000000000000000 ) ) ;
#306 = DIRECTION ( 'NONE',  ( 1.000000000000000000, -0.000000000000000000, -0.000000000000000000 ) ) ;
#307 = ORIENTED_EDGE ( 'NONE', *, *, #725, .T. ) ;
#308 = CARTESIAN_POINT ( 'NONE',  ( 0.1181102362204725781, 0.6203684768850671327, 0.06649714388181111879 ) ) ;
#309 = CARTESIAN_POINT ( 'NONE',  ( -0.07874015748031489015, 0.8661417322834645827, 0.2362204724409448509 ) ) ;
#310 = DIRECTION ( 'NONE',  ( 0.000000000000000000, -1.000000000000000000, 0.000000000000000000 ) ) ;
#311 = VERTEX_POINT ( 'NONE', #696 ) ;
#312 = ADVANCED_FACE ( 'NONE', ( #477 ), #89, .F. ) ;
#313 = AXIS2_PLACEMENT_3D ( 'NONE', #229, #445, #115 ) ;
#314 = CARTESIAN_POINT ( 'NONE',  ( 0.6203684768850674658, 0.1181102362204723422, -0.3543307086614173596 ) ) ;
#315 = CARTESIAN_POINT ( 'NONE',  ( 0.4878092547440379123, 0.2506694583615020622, 0.2472952079748137466 ) ) ;
#316 = VERTEX_POINT ( 'NONE', #765 ) ;
#317 = EDGE_CURVE ( 'NONE', #655, #525, #688, .T. ) ;
#318 = CARTESIAN_POINT ( 'NONE',  ( 0.1181102362204725087, 0.3937007874015748254, 0.1082677165354330728 ) ) ;
#319 = VECTOR ( 'NONE', #514, 39.37007874015748143 ) ;
#320 = VECTOR ( 'NONE', #792, 39.37007874015748143 ) ;
#321 = DIRECTION ( 'NONE',  ( 0.000000000000000000, 0.000000000000000000, 1.000000000000000000 ) ) ;
#322 = DIRECTION ( 'NONE',  ( 0.000000000000000000, 0.000000000000000000, 1.000000000000000000 ) ) ;
#323 = VERTEX_POINT ( 'NONE', #277 ) ;
#324 = DATE_AND_TIME ( #38, #826 ) ;
#325 = CARTESIAN_POINT ( 'NONE',  ( 0.1296414653076162493, 0.7758703457160058825, -0.3543307086614173596 ) ) ;
#326 = CARTESIAN_POINT ( 'NONE',  ( 0.7874015748031496509, 0.000000000000000000, -0.3543307086614173596 ) ) ;
#327 =( BOUNDED_CURVE ( )  B_SPLINE_CURVE ( 3, ( #168, #111, #309, #364 ),
 .UNSPECIFIED., .F., .F. ) 
 B_SPLINE_CURVE_WITH_KNOTS ( ( 4, 4 ),
 ( 4.712388980384689674, 7.853981633974482790 ),
 .UNSPECIFIED. ) 
 CURVE ( )  GEOMETRIC_REPRESENTATION_ITEM ( )  RATIONAL_B_SPLINE_CURVE ( ( 1.000000000000000000, 0.3333333333333333703, 0.3333333333333333703, 1.000000000000000000 ) ) 
 REPRESENTATION_ITEM ( '' )  );
#328 = EDGE_LOOP ( 'NONE', ( #193, #290 ) ) ;
#329 = EDGE_CURVE ( 'NONE', #413, #147, #578, .T. ) ;
#330 = LINE ( 'NONE', #228, #19 ) ;
#331 = DIRECTION ( 'NONE',  ( -1.000000000000000000, 0.000000000000000000, 0.000000000000000000 ) ) ;
#332 = ORIENTED_EDGE ( 'NONE', *, *, #18, .F. ) ;
#333 = AXIS2_PLACEMENT_3D ( 'NONE', #618, #546, #625 ) ;
#334 = AXIS2_PLACEMENT_3D ( 'NONE', #339, #611, #261 ) ;
#335 = CARTESIAN_POINT ( 'NONE',  ( 0.000000000000000000, 0.3937007874015748254, 0.000000000000000000 ) ) ;
#336 = CARTESIAN_POINT ( 'NONE',  ( 0.000000000000000000, 0.7874015748031496509, -0.3543307086614173596 ) ) ;
#337 = ORIENTED_EDGE ( 'NONE', *, *, #425, .T. ) ;
#338 = CARTESIAN_POINT ( 'NONE',  ( 0.1296414653076162493, 0.7758703457160059935, -0.3543307086614173596 ) ) ;
#339 = CARTESIAN_POINT ( 'NONE',  ( 0.1018026156546025518, 0.7480314960629921295, 0.3543307086614173596 ) ) ;
#340 = ORIENTED_EDGE ( 'NONE', *, *, #876, .T. ) ;
#341 = EDGE_CURVE ( 'NONE', #593, #595, #581, .T. ) ;
#342 = CIRCLE ( 'NONE', #739, 0.03937007874015751446 ) ;
#343 = VERTEX_POINT ( 'NONE', #510 ) ;
#344 = DIRECTION ( 'NONE',  ( -1.000000000000000000, 2.039673846403280818E-16, 0.000000000000000000 ) ) ;
#345 = EDGE_LOOP ( 'NONE', ( #615, #656, #761, #258 ) ) ;
#346 = AXIS2_PLACEMENT_3D ( 'NONE', #107, #716, #175 ) ;
#347 = DIRECTION ( 'NONE',  ( -1.000000000000000000, 0.000000000000000000, 0.000000000000000000 ) ) ;
#348 = CARTESIAN_POINT ( 'NONE',  ( 0.3937007874015748254, 0.000000000000000000, 0.000000000000000000 ) ) ;
#349 = ORIENTED_EDGE ( 'NONE', *, *, #341, .T. ) ;
#350 = FACE_OUTER_BOUND ( 'NONE', #458, .T. ) ;
#351 = VERTEX_POINT ( 'NONE', #367 ) ;
#352 = EDGE_CURVE ( 'NONE', #343, #311, #620, .T. ) ;
#353 = CIRCLE ( 'NONE', #211, 0.03937007874015751446 ) ;
#354 = DIRECTION ( 'NONE',  ( -1.000000000000000000, 0.000000000000000000, 0.000000000000000000 ) ) ;
#355 = EDGE_LOOP ( 'NONE', ( #721, #23, #169, #30 ) ) ;
#356 = DIRECTION ( 'NONE',  ( 1.000000000000000000, 0.000000000000000000, 0.000000000000000000 ) ) ;
#357 = CARTESIAN_POINT ( 'NONE',  ( 0.1181102362204724532, 0.7874015748031496509, -0.3543307086614173596 ) ) ;
#358 = ORIENTED_EDGE ( 'NONE', *, *, #493, .T. ) ;
#359 = EDGE_CURVE ( 'NONE', #413, #506, #342, .T. ) ;
#360 = DIRECTION ( 'NONE',  ( 0.000000000000000000, 0.000000000000000000, 1.000000000000000000 ) ) ;
#361 = ORIENTED_EDGE ( 'NONE', *, *, #83, .T. ) ;
#362 = ADVANCED_FACE ( 'NONE', ( #241, #835 ), #301, .T. ) ;
#363 = CARTESIAN_POINT ( 'NONE',  ( 0.4136499838380291449, 0.4136499838380290894, -0.2362204724409449064 ) ) ;
#364 = CARTESIAN_POINT ( 'NONE',  ( 0.3937007874015748254, 0.3937007874015747699, 0.2362204724409449064 ) ) ;
#365 = EDGE_LOOP ( 'NONE', ( #858, #466, #693, #374 ) ) ;
#366 = DIRECTION ( 'NONE',  ( -1.000000000000000000, 2.039673846403280818E-16, 0.000000000000000000 ) ) ;
#367 = CARTESIAN_POINT ( 'NONE',  ( 0.1574803149606299191, 0.1181102362204724532, -0.3543307086614173596 ) ) ;
#368 = CARTESIAN_POINT ( 'NONE',  ( 0.7758703457160056605, 0.1296414653076163326, -0.3543307086614173596 ) ) ;
#369 = EDGE_LOOP ( 'NONE', ( #836, #113, #42 ) ) ;
#370 = VECTOR ( 'NONE', #145, 39.37007874015748854 ) ;
#371 = LINE ( 'NONE', #381, #234 ) ;
#372 = PLANE ( 'NONE',  #724 ) ;
#373 = CARTESIAN_POINT ( 'NONE',  ( 0.6153081468159909972, 0.2902036642076310513, 0.2706902971799086677 ) ) ;
#374 = ORIENTED_EDGE ( 'NONE', *, *, #225, .F. ) ;
#375 = ORIENTED_EDGE ( 'NONE', *, *, #198, .T. ) ;
#376 = CARTESIAN_POINT ( 'NONE',  ( 0.3937007874015747699, 0.3937007874015747699, -0.2362204724409449064 ) ) ;
#377 = DIRECTION ( 'NONE',  ( -0.000000000000000000, -0.000000000000000000, -1.000000000000000000 ) ) ;
#378 = EDGE_CURVE ( 'NONE', #595, #667, #22, .T. ) ;
#379 = CARTESIAN_POINT ( 'NONE',  ( 0.3692393565527709587, 0.3692393565527688493, 0.2349505267094592620 ) ) ;
#380 = ORIENTED_EDGE ( 'NONE', *, *, #824, .F. ) ;
#381 = CARTESIAN_POINT ( 'NONE',  ( 0.7874015748031497619, 0.1574803149606297803, 0.000000000000000000 ) ) ;
#382 = UNCERTAINTY_MEASURE_WITH_UNIT (LENGTH_MEASURE( 1.000000000000000082E-05 ), #694, 'distance_accuracy_value', 'NONE');
#383 = LINE ( 'NONE', #186, #771 ) ;
#384 = EDGE_LOOP ( 'NONE', ( #752, #252, #750, #243, #441, #205 ) ) ;
#385 = DIRECTION ( 'NONE',  ( -1.000000000000000000, 2.039673846403280818E-16, 0.000000000000000000 ) ) ;
#386 = EDGE_LOOP ( 'NONE', ( #851, #831, #722, #571 ) ) ;
#387 = CIRCLE ( 'NONE', #202, 0.2362204724409449064 ) ;
#388 = VECTOR ( 'NONE', #453, 39.37007874015748854 ) ;
#389 = CARTESIAN_POINT ( 'NONE',  ( 0.7874015748031497619, 0.3937007874015746589, 0.000000000000000000 ) ) ;
#390 = ORIENTED_EDGE ( 'NONE', *, *, #198, .F. ) ;
#391 = EDGE_CURVE ( 'NONE', #843, #667, #651, .T. ) ;
#392 = CARTESIAN_POINT ( 'NONE',  ( 0.6203684768850674658, 0.1181102362204724254, -0.3543307086614173596 ) ) ;
#393 = FACE_OUTER_BOUND ( 'NONE', #782, .T. ) ;
#394 = VERTEX_POINT ( 'NONE', #632 ) ;
#395 = AXIS2_PLACEMENT_3D ( 'NONE', #348, #822, #749 ) ;
#396 = VECTOR ( 'NONE', #75, 39.37007874015748143 ) ;
#397 = PLANE ( 'NONE',  #459 ) ;
#398 = LINE ( 'NONE', #874, #859 ) ;
#399 = EDGE_LOOP ( 'NONE', ( #60, #165, #661, #36 ) ) ;
#400 = VECTOR ( 'NONE', #503, 39.37007874015748143 ) ;
#401 = LINE ( 'NONE', #685, #784 ) ;
#402 = ADVANCED_FACE ( 'NONE', ( #646 ), #372, .T. ) ;
#403 = DIRECTION ( 'NONE',  ( -0.000000000000000000, -1.000000000000000000, -0.000000000000000000 ) ) ;
#404 = ORIENTED_EDGE ( 'NONE', *, *, #801, .T. ) ;
#405 = DIRECTION ( 'NONE',  ( 1.000000000000000000, 0.000000000000000000, 0.000000000000000000 ) ) ;
#406 = CARTESIAN_POINT ( 'NONE',  ( 0.000000000000000000, 0.7874015748031496509, -0.3543307086614173596 ) ) ;
#407 = ORIENTED_EDGE ( 'NONE', *, *, #414, .F. ) ;
#408 = FACE_OUTER_BOUND ( 'NONE', #755, .T. ) ;
#409 = CARTESIAN_POINT ( 'NONE',  ( 0.1181102362204725503, 0.6203684768850671327, -0.3543307086614173596 ) ) ;
#410 = ORIENTED_EDGE ( 'NONE', *, *, #299, .T. ) ;
#411 = LOCAL_TIME ( 10, 54, 33.00000000000000000, #222 ) ;
#412 = CARTESIAN_POINT ( 'NONE',  ( 0.5019685039370078705, 0.000000000000000000, 0.000000000000000000 ) ) ;
#413 = VERTEX_POINT ( 'NONE', #164 ) ;
#414 = EDGE_CURVE ( 'NONE', #311, #501, #832, .T. ) ;
#415 = CARTESIAN_POINT ( 'NONE',  ( 0.3937007874015747699, 0.3937007874015747699, -0.2362204724409449064 ) ) ;
#416 = CARTESIAN_POINT ( 'NONE',  ( 0.1296414653076161383, 0.7758703457160059935, -0.3543307086614173596 ) ) ;
#417 = EDGE_LOOP ( 'NONE', ( #26, #538, #633, #126 ) ) ;
#418 = PRODUCT ( '5537T518_T-Slotted Framing', '5537T518_T-Slotted Framing', '', ( #753 ) ) ;
#419 = CC_DESIGN_DATE_AND_TIME_ASSIGNMENT ( #621, #691, ( #476 ) ) ;
#420 = DIRECTION ( 'NONE',  ( 0.000000000000000000, 0.000000000000000000, 1.000000000000000000 ) ) ;
#421 = EDGE_LOOP ( 'NONE', ( #86, #133, #612, #49 ) ) ;
#422 = DIMENSIONAL_EXPONENTS ( 1.000000000000000000, 0.000000000000000000, 0.000000000000000000, 0.000000000000000000, 0.000000000000000000, 0.000000000000000000, 0.000000000000000000 ) ;
#423 = CYLINDRICAL_SURFACE ( 'NONE', #139, 0.1082677165354330728 ) ;
#424 = AXIS2_PLACEMENT_3D ( 'NONE', #191, #321, #643 ) ;
#425 = EDGE_CURVE ( 'NONE', #431, #484, #552, .T. ) ;
#426 = ORIENTED_EDGE ( 'NONE', *, *, #502, .F. ) ;
#427 = CLOSED_SHELL ( 'NONE', ( #648, #51, #148, #497, #833, #362, #561, #748, #631, #433, #402, #207, #266, #66, #590, #762, #519, #574, #640, #545, #194, #756, #260, #312 ) ) ;
#428 = VECTOR ( 'NONE', #807, 39.37007874015748143 ) ;
#429 = PERSON_AND_ORGANIZATION ( #135, #52 ) ;
#430 = CARTESIAN_POINT ( 'NONE',  ( 0.4527559055118113296, 0.4527559055118108300, 0.2287194889492569216 ) ) ;
#431 = VERTEX_POINT ( 'NONE', #769 ) ;
#432 = CARTESIAN_POINT ( 'NONE',  ( 0.000000000000000000, 0.000000000000000000, 0.3543307086614173596 ) ) ;
#433 = ADVANCED_FACE ( 'NONE', ( #712 ), #423, .F. ) ;
#434 = CARTESIAN_POINT ( 'NONE',  ( 0.1574803149606298913, 0.7480314960629922405, -0.1678832329226074005 ) ) ;
#435 = CARTESIAN_POINT ( 'NONE',  ( 0.1574803149606299191, 0.1574803149606299191, -0.3543307086614173596 ) ) ;
#436 = DIRECTION ( 'NONE',  ( 0.000000000000000000, -1.000000000000000000, 0.000000000000000000 ) ) ;
#437 = EDGE_CURVE ( 'NONE', #63, #484, #327, .T. ) ;
#438 = CARTESIAN_POINT ( 'NONE',  ( 0.4136499838380292560, 0.4136499838380291449, 0.2362204724409449064 ) ) ;
#439 = CARTESIAN_POINT ( 'NONE',  ( 0.4527559055118113296, 0.4527559055118108300, 0.2287194889492569216 ) ) ;
#440 = VECTOR ( 'NONE', #65, 39.37007874015748143 ) ;
#441 = ORIENTED_EDGE ( 'NONE', *, *, #774, .T. ) ;
#442 = CARTESIAN_POINT ( 'NONE',  ( 0.7874015748031496509, 0.000000000000000000, 0.3543307086614173596 ) ) ;
#443 = AXIS2_PLACEMENT_3D ( 'NONE', #288, #213, #16 ) ;
#444 = EDGE_CURVE ( 'NONE', #431, #93, #167, .T. ) ;
#445 = DIRECTION ( 'NONE',  ( -1.000000000000000000, 0.000000000000000000, 0.000000000000000000 ) ) ;
#446 = CC_DESIGN_DATE_AND_TIME_ASSIGNMENT ( #509, #518, ( #190 ) ) ;
#447 = FACE_OUTER_BOUND ( 'NONE', #417, .T. ) ;
#448 = ORIENTED_EDGE ( 'NONE', *, *, #391, .F. ) ;
#449 = ORIENTED_EDGE ( 'NONE', *, *, #238, .T. ) ;
#450 = CARTESIAN_POINT ( 'NONE',  ( 0.1181102362204725503, 0.6203684768850671327, -0.3543307086614173596 ) ) ;
#451 = APPROVAL_ROLE ( '' ) ;
#452 = CARTESIAN_POINT ( 'NONE',  ( 0.000000000000000000, 0.000000000000000000, -0.3543307086614173596 ) ) ;
#453 = DIRECTION ( 'NONE',  ( 0.7071067811865474617, -0.7071067811865474617, 0.000000000000000000 ) ) ;
#454 = CARTESIAN_POINT ( 'NONE',  ( 0.4527559055118111631, 0.4527559055118108855, -0.2287194889492569216 ) ) ;
#455 = LINE ( 'NONE', #368, #868 ) ;
#456 = PLANE ( 'NONE',  #97 ) ;
#457 = EDGE_CURVE ( 'NONE', #565, #626, #353, .T. ) ;
#458 = EDGE_LOOP ( 'NONE', ( #494, #410, #76, #687 ) ) ;
#459 = AXIS2_PLACEMENT_3D ( 'NONE', #131, #195, #264 ) ;
#460 = CARTESIAN_POINT ( 'NONE',  ( 0.3543307086614173596, 0.3937007874015748254, 0.000000000000000000 ) ) ;
#461 = LINE ( 'NONE', #861, #53 ) ;
#462 = EDGE_LOOP ( 'NONE', ( #102, #152, #820, #875, #239, #143 ) ) ;
#463 = AXIS2_PLACEMENT_3D ( 'NONE', #161, #780, #305 ) ;
#464 = LINE ( 'NONE', #467, #440 ) ;
#465 = CYLINDRICAL_SURFACE ( 'NONE', #773, 0.1082677165354331006 ) ;
#466 = ORIENTED_EDGE ( 'NONE', *, *, #768, .F. ) ;
#467 = CARTESIAN_POINT ( 'NONE',  ( 0.000000000000000000, 0.000000000000000000, -0.3543307086614173596 ) ) ;
#468 = CYLINDRICAL_SURFACE ( 'NONE', #605, 0.2362204724409449064 ) ;
#469 = ORIENTED_EDGE ( 'NONE', *, *, #33, .T. ) ;
#470 =( BOUNDED_CURVE ( )  B_SPLINE_CURVE ( 3, ( #251, #647, #373, #439 ),
 .UNSPECIFIED., .F., .F. ) 
 B_SPLINE_CURVE_WITH_KNOTS ( ( 4, 4 ),
 ( 3.141592653589793116, 4.965069235526767599 ),
 .UNSPECIFIED. ) 
 CURVE ( )  GEOMETRIC_REPRESENTATION_ITEM ( )  RATIONAL_B_SPLINE_CURVE ( ( 1.000000000000000000, 0.7415816237971963876, 0.7415816237971963876, 1.000000000000000000 ) ) 
 REPRESENTATION_ITEM ( '' )  );
#471 = AXIS2_PLACEMENT_3D ( 'NONE', #838, #572, #31 ) ;
#472 = LOCAL_TIME ( 10, 54, 33.00000000000000000, #296 ) ;
#473 = EDGE_CURVE ( 'NONE', #501, #805, #855, .T. ) ;
#474 = CIRCLE ( 'NONE', #334, 0.03937007874015747977 ) ;
#475 = DIRECTION ( 'NONE',  ( 1.000000000000000000, 0.000000000000000000, 0.000000000000000000 ) ) ;
#476 = PRODUCT_DEFINITION ( 'UNKNOWN', '', #32, #95 ) ;
#477 = FACE_OUTER_BOUND ( 'NONE', #365, .T. ) ;
#478 = VERTEX_POINT ( 'NONE', #308 ) ;
#479 = CARTESIAN_POINT ( 'NONE',  ( 0.6203684768850674658, 0.1181102362204723977, -0.3543307086614173596 ) ) ;
#480 = DIRECTION ( 'NONE',  ( -0.000000000000000000, -1.000000000000000000, -0.000000000000000000 ) ) ;
#481 = VERTEX_POINT ( 'NONE', #517 ) ;
#482 = LINE ( 'NONE', #669, #799 ) ;
#483 = FACE_OUTER_BOUND ( 'NONE', #660, .T. ) ;
#484 = VERTEX_POINT ( 'NONE', #499 ) ;
#485 = EDGE_CURVE ( 'NONE', #543, #619, #587, .T. ) ;
#486 = VECTOR ( 'NONE', #271, 39.37007874015748143 ) ;
#487 = LINE ( 'NONE', #416, #562 ) ;
#488 = VERTEX_POINT ( 'NONE', #508 ) ;
#489 = DATE_AND_TIME ( #553, #472 ) ;
#490 = CARTESIAN_POINT ( 'NONE',  ( 0.6299212598425196763, 0.1574803149606298358, 0.1383747490457255813 ) ) ;
#491 = ADVANCED_BREP_SHAPE_REPRESENTATION ( '5537T518_T-Slotted Framing', ( #68, #539 ), #585 ) ;
#492 = ORIENTED_EDGE ( 'NONE', *, *, #473, .T. ) ;
#493 = EDGE_CURVE ( 'NONE', #626, #543, #728, .T. ) ;
#494 = ORIENTED_EDGE ( 'NONE', *, *, #852, .F. ) ;
#495 = PERSON_AND_ORGANIZATION ( #135, #52 ) ;
#496 = CARTESIAN_POINT ( 'NONE',  ( 0.2902036642076314399, 0.6153081468159906642, 0.2706902971799088897 ) ) ;
#497 = ADVANCED_FACE ( 'NONE', ( #37 ), #634, .F. ) ;
#498 = ORIENTED_EDGE ( 'NONE', *, *, #457, .F. ) ;
#499 = CARTESIAN_POINT ( 'NONE',  ( 0.3937007874015748254, 0.3937007874015747699, 0.2362204724409449064 ) ) ;
#500 = CARTESIAN_POINT ( 'NONE',  ( 0.1574803149606299191, 0.7480314960629922405, 2.892866454678788147E-17 ) ) ;
#501 = VERTEX_POINT ( 'NONE', #254 ) ;
#502 = EDGE_CURVE ( 'NONE', #63, #93, #11, .T. ) ;
#503 = DIRECTION ( 'NONE',  ( -0.000000000000000000, -1.000000000000000000, -0.000000000000000000 ) ) ;
#504 = DIRECTION ( 'NONE',  ( -1.000000000000000000, 0.000000000000000000, 0.000000000000000000 ) ) ;
#505 = CARTESIAN_POINT ( 'NONE',  ( 0.3692393565527709587, 0.3692393565527688493, 0.2349505267094592620 ) ) ;
#506 = VERTEX_POINT ( 'NONE', #304 ) ;
#507 = EDGE_CURVE ( 'NONE', #662, #488, #577, .T. ) ;
#508 = CARTESIAN_POINT ( 'NONE',  ( 0.1181102362204724948, 0.1574803149606299191, 0.3543307086614173596 ) ) ;
#509 = DATE_AND_TIME ( #717, #110 ) ;
#510 = CARTESIAN_POINT ( 'NONE',  ( 0.1181102362204725781, 0.6203684768850671327, -0.06649714388181110492 ) ) ;
#511 = CARTESIAN_POINT ( 'NONE',  ( 0.6203684768850674658, 0.1181102362204724116, 0.06649714388181009184 ) ) ;
#512 = VECTOR ( 'NONE', #235, 39.37007874015748143 ) ;
#513 = ORIENTED_EDGE ( 'NONE', *, *, #663, .T. ) ;
#514 = DIRECTION ( 'NONE',  ( -0.000000000000000000, -0.000000000000000000, -1.000000000000000000 ) ) ;
#515 = CARTESIAN_POINT ( 'NONE',  ( 0.7874015748031496509, 0.1018026156546026628, 0.3543307086614173596 ) ) ;
#516 = CARTESIAN_POINT ( 'NONE',  ( 0.3937007874015748254, 0.3543307086614173596, 0.000000000000000000 ) ) ;
#517 = CARTESIAN_POINT ( 'NONE',  ( 0.1181102362204725503, 0.6203684768850671327, -0.3543307086614173596 ) ) ;
#518 = DATE_TIME_ROLE ( 'classification_date' ) ;
#519 = ADVANCED_FACE ( 'NONE', ( #848 ), #582, .F. ) ;
#520 = CARTESIAN_POINT ( 'NONE',  ( 0.7874015748031496509, 0.000000000000000000, -0.3543307086614173596 ) ) ;
#521 = CARTESIAN_POINT ( 'NONE',  ( 0.5320755364473004345, 0.2553260383558491053, -0.2362204724409449341 ) ) ;
#522 = VERTEX_POINT ( 'NONE', #27 ) ;
#523 = FACE_OUTER_BOUND ( 'NONE', #399, .T. ) ;
#524 = CARTESIAN_POINT ( 'NONE',  ( 0.3937007874015747699, 0.3937007874015747699, -0.2362204724409449064 ) ) ;
#525 = VERTEX_POINT ( 'NONE', #166 ) ;
#526 = VECTOR ( 'NONE', #212, 39.37007874015748854 ) ;
#527 = ORIENTED_EDGE ( 'NONE', *, *, #121, .F. ) ;
#528 = CARTESIAN_POINT ( 'NONE',  ( 0.7874015748031497619, 0.3937007874015746589, 0.000000000000000000 ) ) ;
#529 = CARTESIAN_POINT ( 'NONE',  ( 0.3937007874015748254, 0.1181102362204724532, 0.000000000000000000 ) ) ;
#530 = ORIENTED_EDGE ( 'NONE', *, *, #741, .F. ) ;
#531 =( BOUNDED_CURVE ( )  B_SPLINE_CURVE ( 3, ( #119, #798, #654, #795 ),
 .UNSPECIFIED., .F., .F. ) 
 B_SPLINE_CURVE_WITH_KNOTS ( ( 4, 4 ),
 ( 1.318116071652819077, 3.141592653589793116 ),
 .UNSPECIFIED. ) 
 CURVE ( )  GEOMETRIC_REPRESENTATION_ITEM ( )  RATIONAL_B_SPLINE_CURVE ( ( 1.000000000000000000, 0.7415816237971967206, 0.7415816237971967206, 1.000000000000000000 ) ) 
 REPRESENTATION_ITEM ( '' )  );
#532 = CARTESIAN_POINT ( 'NONE',  ( 0.1296414653076162493, 0.7758703457160058825, 0.3543307086614173596 ) ) ;
#533 = CARTESIAN_POINT ( 'NONE',  ( 0.000000000000000000, 0.000000000000000000, 0.3543307086614173596 ) ) ;
#534 = ORIENTED_EDGE ( 'NONE', *, *, #170, .T. ) ;
#535 = EDGE_CURVE ( 'NONE', #766, #351, #244, .T. ) ;
#536 = DIRECTION ( 'NONE',  ( -1.000000000000000000, 0.000000000000000000, 0.000000000000000000 ) ) ;
#537 = FACE_OUTER_BOUND ( 'NONE', #257, .T. ) ;
#538 = ORIENTED_EDGE ( 'NONE', *, *, #668, .F. ) ;
#539 = AXIS2_PLACEMENT_3D ( 'NONE', #840, #236, #356 ) ;
#540 = VECTOR ( 'NONE', #480, 39.37007874015748143 ) ;
#541 = DIRECTION ( 'NONE',  ( 0.000000000000000000, -1.000000000000000000, 0.000000000000000000 ) ) ;
#542 = PLANE ( 'NONE',  #20 ) ;
#543 = VERTEX_POINT ( 'NONE', #442 ) ;
#544 = DIRECTION ( 'NONE',  ( 0.000000000000000000, 0.000000000000000000, 1.000000000000000000 ) ) ;
#545 = ADVANCED_FACE ( 'NONE', ( #566 ), #103, .F. ) ;
#546 = DIRECTION ( 'NONE',  ( -3.399456410672132643E-17, -1.000000000000000000, 0.000000000000000000 ) ) ;
#547 = EDGE_LOOP ( 'NONE', ( #787, #267, #530, #218 ) ) ;
#548 = APPROVAL_ROLE ( '' ) ;
#549 = CARTESIAN_POINT ( 'NONE',  ( 0.6299212598425196763, 0.1574803149606297803, 0.000000000000000000 ) ) ;
#550 = ORIENTED_EDGE ( 'NONE', *, *, #170, .F. ) ;
#551 = VECTOR ( 'NONE', #182, 39.37007874015748143 ) ;
#552 =( BOUNDED_CURVE ( )  B_SPLINE_CURVE ( 3, ( #430, #704, #438, #25 ),
 .UNSPECIFIED., .F., .F. ) 
 B_SPLINE_CURVE_WITH_KNOTS ( ( 4, 4 ),
 ( 4.459708725242610861, 4.712388980384689674 ),
 .UNSPECIFIED. ) 
 CURVE ( )  GEOMETRIC_REPRESENTATION_ITEM ( )  RATIONAL_B_SPLINE_CURVE ( ( 1.000000000000000000, 0.9946864641781110183, 0.9946864641781110183, 1.000000000000000000 ) ) 
 REPRESENTATION_ITEM ( '' )  );
#553 = CALENDAR_DATE ( 2026, 18, 1 ) ;
#554 = CARTESIAN_POINT ( 'NONE',  ( 0.3692393565527709587, 0.3692393565527688493, 0.2349505267094592620 ) ) ;
#555 = AXIS2_PLACEMENT_3D ( 'NONE', #146, #420, #10 ) ;
#556 = ORIENTED_EDGE ( 'NONE', *, *, #160, .T. ) ;
#557 = EDGE_CURVE ( 'NONE', #638, #680, #371, .T. ) ;
#558 =( BOUNDED_CURVE ( )  B_SPLINE_CURVE ( 3, ( #415, #821, #21, #700 ),
 .UNSPECIFIED., .F., .F. ) 
 B_SPLINE_CURVE_WITH_KNOTS ( ( 4, 4 ),
 ( 4.712388980384689674, 4.816128342211598579 ),
 .UNSPECIFIED. ) 
 CURVE ( )  GEOMETRIC_REPRESENTATION_ITEM ( )  RATIONAL_B_SPLINE_CURVE ( ( 1.000000000000000000, 0.9991033797880428668, 0.9991033797880428668, 1.000000000000000000 ) ) 
 REPRESENTATION_ITEM ( '' )  );
#559 = ORIENTED_EDGE ( 'NONE', *, *, #359, .F. ) ;
#560 = APPLICATION_CONTEXT ( 'configuration controlled 3d designs of mechanical parts and assemblies' ) ;
#561 = ADVANCED_FACE ( 'NONE', ( #645 ), #639, .T. ) ;
#562 = VECTOR ( 'NONE', #204, 39.37007874015748143 ) ;
#563 = PERSON_AND_ORGANIZATION ( #135, #52 ) ;
#564 = CARTESIAN_POINT ( 'NONE',  ( 0.1516686184488574840, 0.5868100946566823239, -0.1808870337097337744 ) ) ;
#565 = VERTEX_POINT ( 'NONE', #789 ) ;
#566 = FACE_OUTER_BOUND ( 'NONE', #740, .T. ) ;
#567 =( NAMED_UNIT ( * ) PLANE_ANGLE_UNIT ( ) SI_UNIT ( $, .RADIAN. ) );
#568 = DIRECTION ( 'NONE',  ( -1.000000000000000000, 0.000000000000000000, 0.000000000000000000 ) ) ;
#569 = CIRCLE ( 'NONE', #189, 0.2362204724409449064 ) ;
#570 = CC_DESIGN_SECURITY_CLASSIFICATION ( #190, ( #32 ) ) ;
#571 = ORIENTED_EDGE ( 'NONE', *, *, #876, .F. ) ;
#572 = DIRECTION ( 'NONE',  ( 0.000000000000000000, 1.000000000000000000, 0.000000000000000000 ) ) ;
#573 = DIRECTION ( 'NONE',  ( -0.000000000000000000, -1.000000000000000000, -0.000000000000000000 ) ) ;
#574 = ADVANCED_FACE ( 'NONE', ( #711 ), #184, .F. ) ;
#575 = LINE ( 'NONE', #112, #275 ) ;
#576 = ORIENTED_EDGE ( 'NONE', *, *, #608, .T. ) ;
#577 = LINE ( 'NONE', #776, #400 ) ;
#578 = LINE ( 'NONE', #785, #14 ) ;
#579 = CYLINDRICAL_SURFACE ( 'NONE', #424, 0.03937007874015751446 ) ;
#580 = EDGE_LOOP ( 'NONE', ( #295, #534, #404, #866 ) ) ;
#581 = CIRCLE ( 'NONE', #313, 0.1082677165354330728 ) ;
#582 = PLANE ( 'NONE',  #642 ) ;
#583 = DIRECTION ( 'NONE',  ( -0.000000000000000000, -0.000000000000000000, -1.000000000000000000 ) ) ;
#584 = DIRECTION ( 'NONE',  ( 0.000000000000000000, 0.000000000000000000, 1.000000000000000000 ) ) ;
#585 =( GEOMETRIC_REPRESENTATION_CONTEXT ( 3 ) GLOBAL_UNCERTAINTY_ASSIGNED_CONTEXT ( ( #382 ) ) GLOBAL_UNIT_ASSIGNED_CONTEXT ( ( #694, #567, #282 ) ) REPRESENTATION_CONTEXT ( 'NONE', 'WORKASPACE' ) );
#586 = EDGE_LOOP ( 'NONE', ( #671, #349 ) ) ;
#587 = LINE ( 'NONE', #432, #108 ) ;
#588 = VECTOR ( 'NONE', #322, 39.37007874015748143 ) ;
#589 = VECTOR ( 'NONE', #265, 39.37007874015748143 ) ;
#590 = ADVANCED_FACE ( 'NONE', ( #114, #650 ), #853, .F. ) ;
#591 = COORDINATED_UNIVERSAL_TIME_OFFSET ( 6, 0, .BEHIND. ) ;
#592 = CARTESIAN_POINT ( 'NONE',  ( 0.6299212598425196763, 0.1574803149606297803, 0.000000000000000000 ) ) ;
#593 = VERTEX_POINT ( 'NONE', #50 ) ;
#594 = LINE ( 'NONE', #71, #320 ) ;
#595 = VERTEX_POINT ( 'NONE', #318 ) ;
#596 = DIRECTION ( 'NONE',  ( -0.000000000000000000, -0.000000000000000000, 1.000000000000000000 ) ) ;
#597 = LINE ( 'NONE', #154, #540 ) ;
#598 = ORIENTED_EDGE ( 'NONE', *, *, #391, .T. ) ;
#599 = DIRECTION ( 'NONE',  ( 0.000000000000000000, 0.000000000000000000, 1.000000000000000000 ) ) ;
#600 = EDGE_CURVE ( 'NONE', #638, #431, #470, .T. ) ;
#601 = DIRECTION ( 'NONE',  ( -0.000000000000000000, 1.000000000000000000, 0.000000000000000000 ) ) ;
#602 = CIRCLE ( 'NONE', #94, 0.2362204724409449064 ) ;
#603 = ORIENTED_EDGE ( 'NONE', *, *, #663, .F. ) ;
#604 = CC_DESIGN_APPROVAL ( #293, ( #190 ) ) ;
#605 = AXIS2_PLACEMENT_3D ( 'NONE', #389, #385, #62 ) ;
#606 = FACE_OUTER_BOUND ( 'NONE', #122, .T. ) ;
#607 = DIRECTION ( 'NONE',  ( 1.000000000000000000, 0.000000000000000000, 0.000000000000000000 ) ) ;
#608 = EDGE_CURVE ( 'NONE', #766, #522, #864, .T. ) ;
#609 = ORIENTED_EDGE ( 'NONE', *, *, #535, .F. ) ;
#610 = CARTESIAN_POINT ( 'NONE',  ( 0.1181102362204725087, 0.3937007874015748254, 0.000000000000000000 ) ) ;
#611 = DIRECTION ( 'NONE',  ( -0.000000000000000000, -0.000000000000000000, -1.000000000000000000 ) ) ;
#612 = ORIENTED_EDGE ( 'NONE', *, *, #72, .T. ) ;
#613 = DIRECTION ( 'NONE',  ( -2.168404344971008621E-16, -1.000000000000000000, 0.000000000000000000 ) ) ;
#614 = CARTESIAN_POINT ( 'NONE',  ( 0.2506694583615038385, 0.4878092547440360804, 0.2472952079748146625 ) ) ;
#615 = ORIENTED_EDGE ( 'NONE', *, *, #695, .T. ) ;
#616 = EDGE_CURVE ( 'NONE', #702, #525, #713, .T. ) ;
#617 = CARTESIAN_POINT ( 'NONE',  ( 0.1181102362204725503, 0.3937007874015748254, 0.000000000000000000 ) ) ;
#618 = CARTESIAN_POINT ( 'NONE',  ( 0.3937007874015748254, 0.7874015748031496509, 0.000000000000000000 ) ) ;
#619 = VERTEX_POINT ( 'NONE', #665 ) ;
#620 =( BOUNDED_CURVE ( )  B_SPLINE_CURVE ( 3, ( #105, #564, #629, #29 ),
 .UNSPECIFIED., .F., .T. ) 
 B_SPLINE_CURVE_WITH_KNOTS ( ( 4, 4 ),
 ( 0.2853617346516355568, 1.674535688621807683 ),
 .UNSPECIFIED. ) 
 CURVE ( )  GEOMETRIC_REPRESENTATION_ITEM ( )  RATIONAL_B_SPLINE_CURVE ( ( 1.000000000000000000, 0.8455454201327433639, 0.8455454201327433639, 1.000000000000000000 ) ) 
 REPRESENTATION_ITEM ( '' )  );
#621 = DATE_AND_TIME ( #153, #411 ) ;
#622 = CARTESIAN_POINT ( 'NONE',  ( 0.1181102362204725781, 0.6203684768850671327, 0.06649714388181111879 ) ) ;
#623 = VERTEX_POINT ( 'NONE', #379 ) ;
#624 = APPROVAL_DATE_TIME ( #489, #99 ) ;
#625 = DIRECTION ( 'NONE',  ( 1.000000000000000000, 0.000000000000000000, 0.000000000000000000 ) ) ;
#626 = VERTEX_POINT ( 'NONE', #515 ) ;
#627 = AXIS2_PLACEMENT_3D ( 'NONE', #136, #347, #544 ) ;
#628 =( LENGTH_UNIT ( ) NAMED_UNIT ( * ) SI_UNIT ( $, .METRE. ) );
#629 = CARTESIAN_POINT ( 'NONE',  ( 0.2506694583615033389, 0.4878092547440365245, -0.2472952079748143572 ) ) ;
#630 = ORIENTED_EDGE ( 'NONE', *, *, #221, .F. ) ;
#631 = ADVANCED_FACE ( 'NONE', ( #523, #791 ), #41, .T. ) ;
#632 = CARTESIAN_POINT ( 'NONE',  ( 0.2854330708661417249, 0.1181102362204724532, 1.325897125061111671E-17 ) ) ;
#633 = ORIENTED_EDGE ( 'NONE', *, *, #359, .T. ) ;
#634 = CYLINDRICAL_SURFACE ( 'NONE', #249, 0.2362204724409449064 ) ;
#635 = APPROVAL_STATUS ( 'not_yet_approved' ) ;
#636 = CARTESIAN_POINT ( 'NONE',  ( 0.1574803149606299746, 0.7480314960629922405, 0.1678832329226074560 ) ) ;
#637 = ORIENTED_EDGE ( 'NONE', *, *, #378, .T. ) ;
#638 = VERTEX_POINT ( 'NONE', #48 ) ;
#639 = PLANE ( 'NONE',  #471 ) ;
#640 = ADVANCED_FACE ( 'NONE', ( #447 ), #579, .T. ) ;
#641 = CARTESIAN_POINT ( 'NONE',  ( 0.000000000000000000, 0.3937007874015748254, 0.000000000000000000 ) ) ;
#642 = AXIS2_PLACEMENT_3D ( 'NONE', #450, #779, #793 ) ;
#643 = DIRECTION ( 'NONE',  ( 1.000000000000000000, 0.000000000000000000, 0.000000000000000000 ) ) ;
#644 = ORIENTED_EDGE ( 'NONE', *, *, #706, .T. ) ;
#645 = FACE_OUTER_BOUND ( 'NONE', #421, .T. ) ;
#646 = FACE_OUTER_BOUND ( 'NONE', #55, .T. ) ;
#647 = CARTESIAN_POINT ( 'NONE',  ( 0.7480314960629922405, 0.1574803149606298358, 0.1678832329226072617 ) ) ;
#648 = ADVANCED_FACE ( 'NONE', ( #850 ), #733, .F. ) ;
#649 = ORIENTED_EDGE ( 'NONE', *, *, #40, .F. ) ;
#650 = FACE_OUTER_BOUND ( 'NONE', #462, .T. ) ;
#651 = CIRCLE ( 'NONE', #226, 0.1082677165354330728 ) ;
#652 = APPROVAL_STATUS ( 'not_yet_approved' ) ;
#653 = CARTESIAN_POINT ( 'NONE',  ( 0.7480314960629921295, 0.1018026156546026628, 0.3543307086614173596 ) ) ;
#654 = CARTESIAN_POINT ( 'NONE',  ( 0.7480314960629921295, 0.1574803149606298636, -0.1678832329226072062 ) ) ;
#655 = VERTEX_POINT ( 'NONE', #786 ) ;
#656 = ORIENTED_EDGE ( 'NONE', *, *, #809, .T. ) ;
#657 = DIRECTION ( 'NONE',  ( -2.039673846403280818E-16, -1.000000000000000000, 0.000000000000000000 ) ) ;
#658 = CARTESIAN_POINT ( 'NONE',  ( 0.5868100946566831011, 0.1516686184488567346, 0.1808870337097327197 ) ) ;
#659 = LOCAL_TIME ( 10, 54, 33.00000000000000000, #767 ) ;
#660 = EDGE_LOOP ( 'NONE', ( #233, #201, #117, #337 ) ) ;
#661 = ORIENTED_EDGE ( 'NONE', *, *, #690, .T. ) ;
#662 = VERTEX_POINT ( 'NONE', #246 ) ;
#663 = EDGE_CURVE ( 'NONE', #162, #623, #710, .T. ) ;
#664 = PERSON_AND_ORGANIZATION ( #135, #52 ) ;
#665 = CARTESIAN_POINT ( 'NONE',  ( 0.000000000000000000, 0.000000000000000000, 0.3543307086614173596 ) ) ;
#666 = CARTESIAN_POINT ( 'NONE',  ( 0.4527559055118111631, 0.4527559055118108855, -0.2287194889492569216 ) ) ;
#667 = VERTEX_POINT ( 'NONE', #116 ) ;
#668 = EDGE_CURVE ( 'NONE', #413, #626, #575, .T. ) ;
#669 = CARTESIAN_POINT ( 'NONE',  ( 0.1181102362204725503, 0.6203684768850671327, -0.3543307086614173596 ) ) ;
#670 = DIRECTION ( 'NONE',  ( 0.000000000000000000, -1.000000000000000000, -0.000000000000000000 ) ) ;
#671 = ORIENTED_EDGE ( 'NONE', *, *, #718, .T. ) ;
#672 = EDGE_CURVE ( 'NONE', #565, #506, #455, .T. ) ;
#673 = LINE ( 'NONE', #268, #486 ) ;
#674 = FACE_OUTER_BOUND ( 'NONE', #129, .T. ) ;
#675 = VECTOR ( 'NONE', #726, 39.37007874015748143 ) ;
#676 = ORIENTED_EDGE ( 'NONE', *, *, #104, .F. ) ;
#677 = CIRCLE ( 'NONE', #292, 0.03937007874015747977 ) ;
#678 = CARTESIAN_POINT ( 'NONE',  ( 0.1574803149606299191, 0.1574803149606299191, 0.3543307086614173596 ) ) ;
#679 = DIRECTION ( 'NONE',  ( -0.000000000000000000, 1.000000000000000000, 0.000000000000000000 ) ) ;
#680 = VERTEX_POINT ( 'NONE', #592 ) ;
#681 = DIRECTION ( 'NONE',  ( -1.000000000000000000, 2.039673846403280818E-16, 0.000000000000000000 ) ) ;
#682 = PLANE ( 'NONE',  #177 ) ;
#683 = ORIENTED_EDGE ( 'NONE', *, *, #668, .T. ) ;
#684 = EDGE_CURVE ( 'NONE', #93, #638, #531, .T. ) ;
#685 = CARTESIAN_POINT ( 'NONE',  ( 0.1181102362204725503, 0.6203684768850671327, -0.3543307086614173596 ) ) ;
#686 = CARTESIAN_POINT ( 'NONE',  ( 0.2854330708661417249, 0.000000000000000000, 1.325897125061111671E-17 ) ) ;
#687 = ORIENTED_EDGE ( 'NONE', *, *, #672, .T. ) ;
#688 = LINE ( 'NONE', #406, #396 ) ;
#689 = ORIENTED_EDGE ( 'NONE', *, *, #414, .T. ) ;
#690 = EDGE_CURVE ( 'NONE', #147, #543, #856, .T. ) ;
#691 = DATE_TIME_ROLE ( 'creation_date' ) ;
#692 = FACE_BOUND ( 'NONE', #369, .T. ) ;
#693 = ORIENTED_EDGE ( 'NONE', *, *, #535, .T. ) ;
#694 =( CONVERSION_BASED_UNIT ( 'INCH', #300 ) LENGTH_UNIT ( ) NAMED_UNIT ( #422 ) );
#695 = EDGE_CURVE ( 'NONE', #351, #805, #383, .T. ) ;
#696 = CARTESIAN_POINT ( 'NONE',  ( 0.3692393565527702926, 0.3692393565527694599, -0.2349505267094593175 ) ) ;
#697 = CC_DESIGN_PERSON_AND_ORGANIZATION_ASSIGNMENT ( #563, #834, ( #32 ) ) ;
#698 = ORIENTED_EDGE ( 'NONE', *, *, #160, .F. ) ;
#699 = AXIS2_PLACEMENT_3D ( 'NONE', #335, #199, #599 ) ;
#700 = CARTESIAN_POINT ( 'NONE',  ( 0.3692393565527702926, 0.3692393565527694599, -0.2349505267094593175 ) ) ;
#701 = CARTESIAN_POINT ( 'NONE',  ( 0.7480314960629921295, 0.1018026156546026628, -0.3543307086614173596 ) ) ;
#702 = VERTEX_POINT ( 'NONE', #729 ) ;
#703 = PERSON_AND_ORGANIZATION_ROLE ( 'classification_officer' ) ;
#704 = CARTESIAN_POINT ( 'NONE',  ( 0.4334401791196591525, 0.4334401791196589859, 0.2337067880583705015 ) ) ;
#705 = VERTEX_POINT ( 'NONE', #124 ) ;
#706 = EDGE_CURVE ( 'NONE', #623, #484, #715, .T. ) ;
#707 = DIRECTION ( 'NONE',  ( 1.000000000000000000, 0.000000000000000000, 0.000000000000000000 ) ) ;
#708 = CARTESIAN_POINT ( 'NONE',  ( 0.2902036642076314399, 0.6153081468159906642, -0.2706902971799088897 ) ) ;
#709 = VERTEX_POINT ( 'NONE', #325 ) ;
#710 =( BOUNDED_CURVE ( )  B_SPLINE_CURVE ( 3, ( #511, #658, #315, #720 ),
 .UNSPECIFIED., .F., .F. ) 
 B_SPLINE_CURVE_WITH_KNOTS ( ( 4, 4 ),
 ( 0.2853617346516311715, 1.674535688621801022 ),
 .UNSPECIFIED. ) 
 CURVE ( )  GEOMETRIC_REPRESENTATION_ITEM ( )  RATIONAL_B_SPLINE_CURVE ( ( 1.000000000000000000, 0.8455454201327438080, 0.8455454201327438080, 1.000000000000000000 ) ) 
 REPRESENTATION_ITEM ( '' )  );
#711 = FACE_OUTER_BOUND ( 'NONE', #82, .T. ) ;
#712 = FACE_OUTER_BOUND ( 'NONE', #197, .T. ) ;
#713 = LINE ( 'NONE', #860, #551 ) ;
#714 = ORIENTED_EDGE ( 'NONE', *, *, #718, .F. ) ;
#715 =( BOUNDED_CURVE ( )  B_SPLINE_CURVE ( 3, ( #505, #846, #242, #781 ),
 .UNSPECIFIED., .F., .F. ) 
 B_SPLINE_CURVE_WITH_KNOTS ( ( 4, 4 ),
 ( 1.467056964967987875, 1.570796326794897002 ),
 .UNSPECIFIED. ) 
 CURVE ( )  GEOMETRIC_REPRESENTATION_ITEM ( )  RATIONAL_B_SPLINE_CURVE ( ( 1.000000000000000000, 0.9991033797880428668, 0.9991033797880428668, 1.000000000000000000 ) ) 
 REPRESENTATION_ITEM ( '' )  );
#716 = DIRECTION ( 'NONE',  ( 0.000000000000000000, -1.000000000000000000, -0.000000000000000000 ) ) ;
#717 = CALENDAR_DATE ( 2026, 18, 1 ) ;
#718 = EDGE_CURVE ( 'NONE', #595, #593, #839, .T. ) ;
#719 = DIRECTION ( 'NONE',  ( 1.000000000000000000, 0.000000000000000000, 0.000000000000000000 ) ) ;
#720 = CARTESIAN_POINT ( 'NONE',  ( 0.3692393565527709587, 0.3692393565527688493, 0.2349505267094592620 ) ) ;
#721 = ORIENTED_EDGE ( 'NONE', *, *, #285, .F. ) ;
#722 = ORIENTED_EDGE ( 'NONE', *, *, #291, .F. ) ;
#723 = CARTESIAN_POINT ( 'NONE',  ( 0.7874015748031496509, 0.000000000000000000, 0.3543307086614173596 ) ) ;
#724 = AXIS2_PLACEMENT_3D ( 'NONE', #849, #719, #39 ) ;
#725 = EDGE_CURVE ( 'NONE', #501, #297, #602, .T. ) ;
#726 = DIRECTION ( 'NONE',  ( 0.000000000000000000, 0.000000000000000000, 1.000000000000000000 ) ) ;
#727 = LINE ( 'NONE', #187, #588 ) ;
#728 = LINE ( 'NONE', #723, #512 ) ;
#729 = CARTESIAN_POINT ( 'NONE',  ( 0.1018026156546025518, 0.7874015748031496509, 0.3543307086614173596 ) ) ;
#730 = AXIS2_PLACEMENT_3D ( 'NONE', #678, #803, #206 ) ;
#731 = CARTESIAN_POINT ( 'NONE',  ( 0.000000000000000000, 0.7874015748031496509, 0.3543307086614173596 ) ) ;
#732 = ORIENTED_EDGE ( 'NONE', *, *, #33, .F. ) ;
#733 = CYLINDRICAL_SURFACE ( 'NONE', #64, 0.1082677165354330728 ) ;
#734 = DIRECTION ( 'NONE',  ( 1.000000000000000000, 0.000000000000000000, 0.000000000000000000 ) ) ;
#735 = ORIENTED_EDGE ( 'NONE', *, *, #557, .F. ) ;
#736 = EDGE_CURVE ( 'NONE', #297, #162, #387, .T. ) ;
#737 = CARTESIAN_POINT ( 'NONE',  ( 0.1574803149606299191, 0.1181102362204724532, 0.3543307086614173596 ) ) ;
#738 = DIRECTION ( 'NONE',  ( -1.000000000000000000, 0.000000000000000000, 0.000000000000000000 ) ) ;
#739 = AXIS2_PLACEMENT_3D ( 'NONE', #701, #777, #845 ) ;
#740 = EDGE_LOOP ( 'NONE', ( #735, #17, #426, #698 ) ) ;
#741 = EDGE_CURVE ( 'NONE', #667, #843, #81, .T. ) ;
#742 = FACE_OUTER_BOUND ( 'NONE', #580, .T. ) ;
#743 = CARTESIAN_POINT ( 'NONE',  ( 0.6203684768850674658, 0.1181102362204724116, 0.06649714388181009184 ) ) ;
#744 = AXIS2_PLACEMENT_3D ( 'NONE', #171, #783, #436 ) ;
#745 = ORIENTED_EDGE ( 'NONE', *, *, #690, .F. ) ;
#746 = AXIS2_PLACEMENT_3D ( 'NONE', #529, #67, #59 ) ;
#747 = FACE_BOUND ( 'NONE', #813, .T. ) ;
#748 = ADVANCED_FACE ( 'NONE', ( #815, #408 ), #397, .F. ) ;
#749 = DIRECTION ( 'NONE',  ( 1.000000000000000000, 0.000000000000000000, 0.000000000000000000 ) ) ;
#750 = ORIENTED_EDGE ( 'NONE', *, *, #706, .F. ) ;
#751 = CARTESIAN_POINT ( 'NONE',  ( 0.1018026156546025518, 0.7480314960629921295, -0.3543307086614173596 ) ) ;
#752 = ORIENTED_EDGE ( 'NONE', *, *, #880, .F. ) ;
#753 = MECHANICAL_CONTEXT ( 'NONE', #87, 'mechanical' ) ;
#754 = CARTESIAN_POINT ( 'NONE',  ( 0.3937007874015748254, 0.3937007874015747699, 0.2362204724409449064 ) ) ;
#755 = EDGE_LOOP ( 'NONE', ( #498, #527, #332, #270, #770, #3, #158 ) ) ;
#756 = ADVANCED_FACE ( 'NONE', ( #877 ), #203, .F. ) ;
#757 = CIRCLE ( 'NONE', #730, 0.03937007874015747977 ) ;
#758 = APPROVAL_PERSON_ORGANIZATION ( #664, #293, #451 ) ;
#759 = PERSON_AND_ORGANIZATION ( #135, #52 ) ;
#760 = CARTESIAN_POINT ( 'NONE',  ( 0.5320755364473002125, 0.2553260383558492164, 0.2362204724409449341 ) ) ;
#761 = ORIENTED_EDGE ( 'NONE', *, *, #56, .T. ) ;
#762 = ADVANCED_FACE ( 'NONE', ( #606 ), #810, .T. ) ;
#763 = CC_DESIGN_PERSON_AND_ORGANIZATION_ASSIGNMENT ( #429, #703, ( #190 ) ) ;
#764 = PERSON_AND_ORGANIZATION ( #135, #52 ) ;
#765 = CARTESIAN_POINT ( 'NONE',  ( 0.000000000000000000, 0.000000000000000000, -0.3543307086614173596 ) ) ;
#766 = VERTEX_POINT ( 'NONE', #737 ) ;
#767 = COORDINATED_UNIVERSAL_TIME_OFFSET ( 6, 0, .BEHIND. ) ;
#768 = EDGE_CURVE ( 'NONE', #766, #488, #757, .T. ) ;
#769 = CARTESIAN_POINT ( 'NONE',  ( 0.4527559055118113296, 0.4527559055118108300, 0.2287194889492569216 ) ) ;
#770 = ORIENTED_EDGE ( 'NONE', *, *, #134, .F. ) ;
#771 = VECTOR ( 'NONE', #306, 39.37007874015748143 ) ;
#772 = CARTESIAN_POINT ( 'NONE',  ( 0.3543307086614173596, 0.3937007874015748254, 0.1082677165354330728 ) ) ;
#773 = AXIS2_PLACEMENT_3D ( 'NONE', #516, #670, #607 ) ;
#774 = EDGE_CURVE ( 'NONE', #478, #343, #569, .T. ) ;
#775 = ORIENTED_EDGE ( 'NONE', *, *, #736, .F. ) ;
#776 = CARTESIAN_POINT ( 'NONE',  ( 0.1181102362204725503, 0.000000000000000000, 0.3543307086614173596 ) ) ;
#777 = DIRECTION ( 'NONE',  ( 0.000000000000000000, 0.000000000000000000, 1.000000000000000000 ) ) ;
#778 = EDGE_LOOP ( 'NONE', ( #603, #469, #879, #180, #630 ) ) ;
#779 = DIRECTION ( 'NONE',  ( 0.7071067811865474617, 0.7071067811865476838, 0.000000000000000000 ) ) ;
#780 = DIRECTION ( 'NONE',  ( 0.000000000000000000, 0.000000000000000000, -1.000000000000000000 ) ) ;
#781 = CARTESIAN_POINT ( 'NONE',  ( 0.3937007874015748254, 0.3937007874015747699, 0.2362204724409449064 ) ) ;
#782 = EDGE_LOOP ( 'NONE', ( #262, #802, #12, #155 ) ) ;
#783 = DIRECTION ( 'NONE',  ( -1.000000000000000000, 2.039673846403280818E-16, 0.000000000000000000 ) ) ;
#784 = VECTOR ( 'NONE', #806, 39.37007874015748143 ) ;
#785 = CARTESIAN_POINT ( 'NONE',  ( 0.7874015748031496509, 0.000000000000000000, -0.3543307086614173596 ) ) ;
#786 = CARTESIAN_POINT ( 'NONE',  ( 0.000000000000000000, 0.7874015748031496509, -0.3543307086614173596 ) ) ;
#787 = ORIENTED_EDGE ( 'NONE', *, *, #341, .F. ) ;
#788 = CIRCLE ( 'NONE', #220, 0.1082677165354331006 ) ;
#789 = CARTESIAN_POINT ( 'NONE',  ( 0.7758703457160058825, 0.1296414653076163048, 0.3543307086614173596 ) ) ;
#790 = EDGE_CURVE ( 'NONE', #705, #488, #673, .T. ) ;
#791 = FACE_BOUND ( 'NONE', #247, .T. ) ;
#792 = DIRECTION ( 'NONE',  ( -3.399456410672132643E-17, -1.000000000000000000, 0.000000000000000000 ) ) ;
#793 = DIRECTION ( 'NONE',  ( -0.7071067811865475727, 0.7071067811865473507, 0.000000000000000000 ) ) ;
#794 = COORDINATED_UNIVERSAL_TIME_OFFSET ( 6, 0, .BEHIND. ) ;
#795 = CARTESIAN_POINT ( 'NONE',  ( 0.7480314960629922405, 0.1574803149606297803, 0.000000000000000000 ) ) ;
#796 = CARTESIAN_POINT ( 'NONE',  ( 0.3937007874015747699, 0.3937007874015747699, -0.2362204724409449064 ) ) ;
#797 = VERTEX_POINT ( 'NONE', #532 ) ;
#798 = CARTESIAN_POINT ( 'NONE',  ( 0.6153081468159909972, 0.2902036642076311623, -0.2706902971799086122 ) ) ;
#799 = VECTOR ( 'NONE', #61, 39.37007874015748143 ) ;
#800 = DIRECTION ( 'NONE',  ( -3.399456410672132643E-17, -1.000000000000000000, 0.000000000000000000 ) ) ;
#801 = EDGE_CURVE ( 'NONE', #316, #619, #464, .T. ) ;
#802 = ORIENTED_EDGE ( 'NONE', *, *, #557, .T. ) ;
#803 = DIRECTION ( 'NONE',  ( 0.000000000000000000, 0.000000000000000000, -1.000000000000000000 ) ) ;
#804 = LINE ( 'NONE', #336, #814 ) ;
#805 = VERTEX_POINT ( 'NONE', #479 ) ;
#806 = DIRECTION ( 'NONE',  ( 0.000000000000000000, 0.000000000000000000, 1.000000000000000000 ) ) ;
#807 = DIRECTION ( 'NONE',  ( 0.000000000000000000, 1.000000000000000000, 0.000000000000000000 ) ) ;
#808 = VERTEX_POINT ( 'NONE', #5 ) ;
#809 = EDGE_CURVE ( 'NONE', #805, #481, #279, .T. ) ;
#810 = CYLINDRICAL_SURFACE ( 'NONE', #825, 0.03937007874015747977 ) ;
#811 = LINE ( 'NONE', #819, #283 ) ;
#812 = AXIS2_PLACEMENT_3D ( 'NONE', #528, #344, #541 ) ;
#813 = EDGE_LOOP ( 'NONE', ( #829, #598 ) ) ;
#814 = VECTOR ( 'NONE', #120, 39.37007874015748143 ) ;
#815 = FACE_BOUND ( 'NONE', #355, .T. ) ;
#816 = DIRECTION ( 'NONE',  ( 0.000000000000000000, -1.000000000000000000, -0.000000000000000000 ) ) ;
#817 = ORIENTED_EDGE ( 'NONE', *, *, #880, .T. ) ;
#818 = CARTESIAN_POINT ( 'NONE',  ( 0.000000000000000000, 0.3937007874015748254, -0.1082677165354330728 ) ) ;
#819 = CARTESIAN_POINT ( 'NONE',  ( 0.2854330708661417249, 0.3543307086614173596, 1.325897125061111208E-17 ) ) ;
#820 = ORIENTED_EDGE ( 'NONE', *, *, #824, .T. ) ;
#821 = CARTESIAN_POINT ( 'NONE',  ( 0.3855286687564506432, 0.3855286687564505876, -0.2362204724409449064 ) ) ;
#822 = DIRECTION ( 'NONE',  ( -0.000000000000000000, 1.000000000000000000, 0.000000000000000000 ) ) ;
#823 = ORIENTED_EDGE ( 'NONE', *, *, #104, .T. ) ;
#824 = EDGE_CURVE ( 'NONE', #481, #343, #401, .T. ) ;
#825 = AXIS2_PLACEMENT_3D ( 'NONE', #751, #873, #475 ) ;
#826 = LOCAL_TIME ( 10, 54, 33.00000000000000000, #591 ) ;
#827 = DIRECTION ( 'NONE',  ( 0.000000000000000000, -1.000000000000000000, -0.000000000000000000 ) ) ;
#828 = DIRECTION ( 'NONE',  ( 0.7071067811865474617, 0.7071067811865476838, 0.000000000000000000 ) ) ;
#829 = ORIENTED_EDGE ( 'NONE', *, *, #741, .T. ) ;
#830 = PERSON_AND_ORGANIZATION ( #135, #52 ) ;
#831 = ORIENTED_EDGE ( 'NONE', *, *, #274, .T. ) ;
#832 =( BOUNDED_CURVE ( )  B_SPLINE_CURVE ( 3, ( #245, #178, #172, #237 ),
 .UNSPECIFIED., .F., .F. ) 
 B_SPLINE_CURVE_WITH_KNOTS ( ( 4, 4 ),
 ( 4.608649618557782546, 5.997823572527955172 ),
 .UNSPECIFIED. ) 
 CURVE ( )  GEOMETRIC_REPRESENTATION_ITEM ( )  RATIONAL_B_SPLINE_CURVE ( ( 1.000000000000000000, 0.8455454201327432529, 0.8455454201327432529, 1.000000000000000000 ) ) 
 REPRESENTATION_ITEM ( '' )  );
#833 = ADVANCED_FACE ( 'NONE', ( #742, #747 ), #78, .T. ) ;
#834 = PERSON_AND_ORGANIZATION_ROLE ( 'design_supplier' ) ;
#835 = FACE_BOUND ( 'NONE', #345, .T. ) ;
#836 = ORIENTED_EDGE ( 'NONE', *, *, #444, .T. ) ;
#837 = ORIENTED_EDGE ( 'NONE', *, *, #473, .F. ) ;
#838 = CARTESIAN_POINT ( 'NONE',  ( 0.000000000000000000, 0.7874015748031496509, -0.3543307086614173596 ) ) ;
#839 = CIRCLE ( 'NONE', #289, 0.1082677165354330728 ) ;
#840 = CARTESIAN_POINT ( 'NONE',  ( 0.000000000000000000, 0.000000000000000000, 0.000000000000000000 ) ) ;
#841 = DIRECTION ( 'NONE',  ( 0.000000000000000000, 0.000000000000000000, 1.000000000000000000 ) ) ;
#842 = APPROVAL ( #635, 'UNSPECIFIED' ) ;
#843 = VERTEX_POINT ( 'NONE', #818 ) ;
#844 = CARTESIAN_POINT ( 'NONE',  ( 0.3937007874015748254, 0.7874015748031496509, 0.000000000000000000 ) ) ;
#845 = DIRECTION ( 'NONE',  ( 1.000000000000000000, 0.000000000000000000, 0.000000000000000000 ) ) ;
#846 = CARTESIAN_POINT ( 'NONE',  ( 0.3773675410414540909, 0.3773675410414539799, 0.2357967773034923831 ) ) ;
#847 = ORIENTED_EDGE ( 'NONE', *, *, #329, .T. ) ;
#848 = FACE_OUTER_BOUND ( 'NONE', #778, .T. ) ;
#849 = CARTESIAN_POINT ( 'NONE',  ( 0.7874015748031496509, 0.1181102362204724532, -0.3543307086614173596 ) ) ;
#850 = FACE_OUTER_BOUND ( 'NONE', #547, .T. ) ;
#851 = ORIENTED_EDGE ( 'NONE', *, *, #9, .T. ) ;
#852 = EDGE_CURVE ( 'NONE', #709, #506, #70, .T. ) ;
#853 = PLANE ( 'NONE',  #263 ) ;
#854 = AXIS2_PLACEMENT_3D ( 'NONE', #452, #310, #259 ) ;
#855 = LINE ( 'NONE', #314, #217 ) ;
#856 = LINE ( 'NONE', #520, #675 ) ;
#857 = AXIS2_PLACEMENT_3D ( 'NONE', #106, #601, #734 ) ;
#858 = ORIENTED_EDGE ( 'NONE', *, *, #790, .T. ) ;
#859 = VECTOR ( 'NONE', #403, 39.37007874015748143 ) ;
#860 = CARTESIAN_POINT ( 'NONE',  ( 0.1018026156546025518, 0.7874015748031496509, -0.3543307086614173596 ) ) ;
#861 = CARTESIAN_POINT ( 'NONE',  ( 0.3543307086614173596, 0.3937007874015748254, -0.1082677165354330728 ) ) ;
#862 = ORIENTED_EDGE ( 'NONE', *, *, #109, .T. ) ;
#863 = EDGE_CURVE ( 'NONE', #662, #478, #482, .T. ) ;
#864 = LINE ( 'NONE', #173, #870 ) ;
#865 = CARTESIAN_POINT ( 'NONE',  ( 0.3937007874015748254, 0.000000000000000000, 0.000000000000000000 ) ) ;
#866 = ORIENTED_EDGE ( 'NONE', *, *, #134, .T. ) ;
#867 =( BOUNDED_CURVE ( )  B_SPLINE_CURVE ( 3, ( #554, #614, #85, #622 ),
 .UNSPECIFIED., .F., .F. ) 
 B_SPLINE_CURVE_WITH_KNOTS ( ( 4, 4 ),
 ( 4.608649618557776328, 5.997823572527950731 ),
 .UNSPECIFIED. ) 
 CURVE ( )  GEOMETRIC_REPRESENTATION_ITEM ( )  RATIONAL_B_SPLINE_CURVE ( ( 1.000000000000000000, 0.8455454201327429198, 0.8455454201327429198, 1.000000000000000000 ) ) 
 REPRESENTATION_ITEM ( '' )  );
#868 = VECTOR ( 'NONE', #35, 39.37007874015748143 ) ;
#869 = CARTESIAN_POINT ( 'NONE',  ( 0.3937007874015748254, 0.1181102362204724116, 0.000000000000000000 ) ) ;
#870 = VECTOR ( 'NONE', #179, 39.37007874015748143 ) ;
#871 = DIRECTION ( 'NONE',  ( 1.000000000000000000, -3.399456410672132643E-17, 0.000000000000000000 ) ) ;
#872 = ORIENTED_EDGE ( 'NONE', *, *, #809, .F. ) ;
#873 = DIRECTION ( 'NONE',  ( 0.000000000000000000, 0.000000000000000000, 1.000000000000000000 ) ) ;
#874 = CARTESIAN_POINT ( 'NONE',  ( 0.1181102362204725503, 0.000000000000000000, -0.3543307086614173596 ) ) ;
#875 = ORIENTED_EDGE ( 'NONE', *, *, #774, .F. ) ;
#876 = EDGE_CURVE ( 'NONE', #323, #286, #330, .T. ) ;
#877 = FACE_OUTER_BOUND ( 'NONE', #384, .T. ) ;
#878 = DIRECTION ( 'NONE',  ( 0.7071067811865475727, 0.7071067811865475727, 0.000000000000000000 ) ) ;
#879 = ORIENTED_EDGE ( 'NONE', *, *, #285, .T. ) ;
#880 = EDGE_CURVE ( 'NONE', #63, #311, #558, .T. ) ;
ENDSEC;
END-ISO-10303-21;
